<?xml version="1.0" encoding="utf-8"?>
<svg width="663px" height="663px" viewBox="0 0 663 663" version="1.1" xmlns:xlink="http://www.w3.org/1999/xlink" xmlns="http://www.w3.org/2000/svg">
  <desc>Created with Lunacy</desc>
  <defs>
    <path d="M0 0L663 0L663 663L0 663L0 0Z" id="path_1" />
    <clipPath id="mask_1">
      <use xlink:href="#path_1" />
    </clipPath>
  </defs>
  <g id="different_camouflage_pattern_design_vector_set">
    <path d="M0 0L663 0L663 663L0 663L0 0Z" id="Background" fill="none" stroke="none" />
    <g clip-path="url(#mask_1)">
      <g id="g10" transform="matrix(1.333333 0 0 -1.333333 -262.0739 923.4471)">
        <g id="g12" transform="scale(0.1 0.1)">
          <path d="M4972.5 0L0 0L0 4972.49L4972.5 4972.49L4972.5 0" transform="translate(1965.556 1953.343)" id="path14" fill="#F78B0D" stroke="none" />
          <path d="M160.85 1960.38C101.747 1887.84 74.55 1802.74 75.987 1708.41C78.8502 1519.67 235.297 1391.94 289.26 1218.61C373.482 948.16 245.149 795.773 99.2921 588.897C-14.392 427.649 -55.5275 269.145 112.523 132.004C260.222 11.4603 496.225 -13.3823 680.626 5.83128C889.805 27.6406 1042.4 158.875 1139.62 339.436C1274.02 589.056 822.638 802.575 957.649 1068.03C1041.36 1232.62 1583.71 1384.95 1299.76 1627.46C1250.27 1669.74 1188.21 1696.58 1198.42 1777.61C1215.6 1914.19 1473.37 1960.54 1565.56 2035.47C1700.06 2144.78 1904.37 2510.34 1662.11 2618.9C1433.16 2721.49 1364.58 2455.2 1298 2302.84C1213.81 2110.21 1128.13 2241.79 984.831 2276.07C909.23 2294.15 836.114 2251.39 765.567 2230.73C701.216 2211.87 634.911 2204.02 569.88 2187.97C419.501 2150.88 261.018 2083.3 160.849 1960.38" transform="translate(1587.486 5031.271)" id="path16" fill="#CEEAEF" stroke="none" />
          <path d="M160.851 1960.38C101.748 1887.84 74.549 1802.74 75.9908 1708.41C78.8451 1519.67 235.299 1391.94 289.261 1218.61C373.485 948.16 245.155 795.773 99.292 588.897C-14.3891 427.649 -55.5317 269.145 112.529 132.004C260.222 11.4603 496.226 -13.3823 680.626 5.83128C889.809 27.6406 1042.4 158.875 1139.62 339.436C1274.01 589.056 822.641 802.575 957.644 1068.03C1041.35 1232.62 1583.71 1384.95 1299.77 1627.46C1250.27 1669.74 1188.22 1696.58 1198.41 1777.61C1215.61 1914.19 1473.38 1960.54 1565.56 2035.47C1700.06 2144.78 1904.38 2510.34 1662.11 2618.9C1433.17 2721.49 1364.57 2455.2 1298 2302.84C1213.81 2110.21 1128.13 2241.79 984.834 2276.07C909.232 2294.15 836.107 2251.39 765.567 2230.73C701.213 2211.87 634.91 2204.02 569.879 2187.97C419.501 2150.88 261.018 2083.3 160.852 1960.38" transform="translate(6559.983 5031.271)" id="path18" fill="#CEEAEF" stroke="none" />
          <path d="M160.851 1960.38C101.748 1887.85 74.549 1802.75 75.9908 1708.41C78.8451 1519.67 235.299 1391.94 289.261 1218.62C373.485 948.162 245.155 795.776 99.292 588.9C-14.3891 427.652 -55.5317 269.149 112.529 132.007C260.222 11.4641 496.226 -13.3885 680.626 5.83515C889.809 27.6346 1042.4 158.879 1139.62 339.44C1274.01 589.059 822.641 802.578 957.644 1068.03C1041.35 1232.62 1583.71 1384.95 1299.77 1627.47C1250.27 1669.74 1188.22 1696.58 1198.41 1777.62C1215.61 1914.19 1473.38 1960.55 1565.56 2035.47C1700.06 2144.79 1904.38 2510.34 1662.11 2618.9C1433.17 2721.5 1364.57 2455.2 1298 2302.84C1213.81 2110.21 1128.13 2241.79 984.834 2276.07C909.232 2294.15 836.107 2251.4 765.567 2230.73C701.213 2211.88 634.91 2204.01 569.879 2187.97C419.501 2150.88 261.017 2083.31 160.851 1960.38" transform="translate(6559.983 58.7749)" id="path20" fill="#D9D187" stroke="none" />
          <path d="M160.852 1960.38C101.745 1887.85 74.5519 1802.75 75.989 1708.41C78.8442 1519.67 235.295 1391.94 289.262 1218.62C373.484 948.162 245.151 795.776 99.2901 588.9C-14.39 427.652 -55.5294 269.149 112.525 132.007C260.224 11.4641 496.223 -13.3885 680.624 5.83515C889.807 27.6346 1042.39 158.879 1139.62 339.44C1274.01 589.059 822.64 802.578 957.647 1068.03C1041.35 1232.62 1583.71 1384.95 1299.77 1627.47C1250.27 1669.74 1188.22 1696.58 1198.41 1777.62C1215.6 1914.19 1473.38 1960.55 1565.56 2035.47C1700.05 2144.79 1904.37 2510.34 1662.1 2618.9C1433.17 2721.5 1364.58 2455.2 1298 2302.84C1213.8 2110.21 1128.13 2241.79 984.828 2276.07C909.231 2294.15 836.112 2251.39 765.565 2230.73C701.214 2211.88 634.909 2204.01 569.878 2187.97C419.499 2150.88 261.02 2083.31 160.852 1960.38" transform="translate(1587.488 58.7749)" id="path22" fill="#CEEAEF" stroke="none" />
          <path d="M1545.18 2188.89C1322.82 2105.14 1183.79 1903.6 1055.49 1715.35C966.757 1585.18 891.284 1458.89 819.253 1318.71C750.702 1185.28 650.098 1071.85 560.036 952.899C474.409 839.775 391.965 756.605 270.975 681.45C187.208 629.438 97.0959 592.254 47.7589 502.013C-21.5777 375.204 -25.158 272.044 102.596 192.484C289.313 76.2174 552.528 -20.3885 776.091 3.71821C956.345 23.1607 1170.22 119.677 1208.92 314.609C1244.85 495.519 1097.85 675.165 1150.41 850.695C1200.45 1017.79 1382.53 987.995 1517.31 987.707C1610.37 987.508 1693.62 978.906 1775.54 1028.6C1836.31 1065.51 1909.63 1112.91 1925.68 1184.49C1953.04 1306.62 1841.59 1379.01 1801.5 1480.05C1762.42 1578.56 1788.79 1607.2 1894.97 1606.28C2082.32 1604.64 2292.36 1671.34 2328.82 1880.23C2336.03 1921.62 2329.69 1973.87 2317.76 2011.23C2297.67 2074.12 2236.6 2083.51 2191.01 2123.43C2142.77 2165.69 2119.61 2195.96 2053.66 2205.36C1888.29 2228.95 1705.13 2249.13 1545.18 2188.9" transform="translate(4972.508 4972.496)" id="path24" fill="#91CA5B" stroke="none" />
          <path d="M1545.18 2188.89C1322.82 2105.14 1183.78 1903.61 1055.49 1715.36C966.762 1585.18 891.284 1458.9 819.252 1318.7C750.701 1185.28 650.098 1071.85 560.036 952.907C474.409 839.782 391.975 756.612 270.984 681.458C187.208 629.435 97.0959 592.251 47.7587 502.02C-21.5778 375.201 -25.158 272.052 102.595 192.492C289.313 76.2245 552.527 -20.3814 776.101 3.7153C956.35 23.1678 1170.23 119.684 1208.92 314.606C1244.85 495.526 1097.85 675.163 1150.41 850.692C1200.45 1017.79 1382.53 987.993 1517.31 987.705C1610.37 987.516 1693.62 978.903 1775.53 1028.61C1836.31 1065.5 1909.63 1112.92 1925.68 1184.5C1953.05 1306.62 1841.59 1379.02 1801.5 1480.06C1762.42 1578.56 1788.79 1607.21 1894.97 1606.27C2082.32 1604.63 2292.36 1671.34 2328.81 1880.24C2336.03 1921.62 2329.69 1973.88 2317.76 2011.24C2297.66 2074.12 2236.59 2083.51 2191.01 2123.44C2142.78 2165.7 2119.61 2195.96 2053.66 2205.36C1888.3 2228.95 1705.14 2249.14 1545.18 2188.89" transform="translate(52.58331 4967.08)" id="path26" fill="#91CA5B" stroke="none" />
          <path d="M1545.19 2188.89C1322.82 2105.13 1183.79 1903.6 1055.49 1715.35C966.761 1585.18 891.288 1458.89 819.256 1318.7C750.706 1185.28 650.102 1071.84 560.04 952.898C474.413 839.774 391.969 756.604 270.978 681.449C187.212 629.437 97.1 592.253 47.7628 502.012C-21.5836 375.193 -25.1539 272.044 102.6 192.484C289.317 76.2171 552.532 -20.3886 776.095 3.71808C956.348 23.1606 1170.23 119.677 1208.92 314.608C1244.85 495.518 1097.86 675.164 1150.42 850.693C1200.45 1017.79 1382.53 987.993 1517.31 987.701C1610.37 987.503 1693.62 978.902 1775.53 1028.6C1836.31 1065.5 1909.64 1112.91 1925.68 1184.49C1953.05 1306.62 1841.59 1379.01 1801.5 1480.06C1762.42 1578.55 1788.79 1607.2 1894.97 1606.27C2082.32 1604.63 2292.36 1671.33 2328.81 1880.23C2336.03 1921.61 2329.7 1973.88 2317.76 2011.23C2297.67 2074.11 2236.6 2083.5 2191.01 2123.43C2142.78 2165.69 2119.62 2195.95 2053.66 2205.36C1888.3 2228.95 1705.14 2249.13 1545.19 2188.89" id="path28" fill="#91CA5B" stroke="none" />
          <path d="M1545.18 2188.89C1322.82 2105.13 1183.79 1903.6 1055.49 1715.35C966.757 1585.18 891.284 1458.89 819.253 1318.7C750.702 1185.28 650.098 1071.84 560.036 952.898C474.409 839.774 391.965 756.604 270.975 681.449C187.208 629.437 97.0959 592.253 47.7589 502.012C-21.5777 375.193 -25.158 272.044 102.596 192.484C289.313 76.2171 552.528 -20.3886 776.091 3.71808C956.345 23.1606 1170.22 119.677 1208.92 314.608C1244.85 495.518 1097.85 675.164 1150.41 850.693C1200.45 1017.79 1382.53 987.993 1517.31 987.701C1610.37 987.503 1693.62 978.902 1775.54 1028.6C1836.31 1065.5 1909.63 1112.91 1925.68 1184.49C1953.04 1306.62 1841.59 1379.01 1801.5 1480.06C1762.42 1578.55 1788.79 1607.2 1894.97 1606.27C2082.32 1604.63 2292.36 1671.33 2328.82 1880.23C2336.03 1921.61 2329.69 1973.88 2317.76 2011.23C2297.67 2074.11 2236.6 2083.5 2191.01 2123.43C2142.77 2165.69 2119.61 2195.95 2053.66 2205.36C1888.29 2228.95 1705.13 2249.13 1545.18 2188.89" transform="translate(4972.508 0)" id="path30" fill="#91CA5B" stroke="none" />
          <path d="M549.848 1406.86C504.947 1348.79 486.857 1302.18 488.975 1225.99C491.074 1150.95 529.242 1091.29 497.339 1017.44C426.391 853.125 202.807 784.123 91.851 649.924C-12.8003 523.319 -33.9733 380.652 59.3209 239.495C141.268 115.504 263.631 31.6789 411.991 6.75075C552.932 -16.9462 761.309 21.3967 863.643 127.268C947.887 214.457 949.787 324.843 914.064 434.412C890.972 505.236 837.687 609.394 894.324 681.196C953.735 756.51 1105.14 729.538 1188.66 751.195C1277.51 774.233 1393.06 856.03 1365.04 965.432C1342.62 1053.04 1246 1067.38 1183.67 1115.52C1147.28 1143.63 1116.77 1188.64 1155.75 1230.4C1187.8 1264.74 1252.19 1260.74 1294.93 1268.42C1367.12 1281.39 1429.65 1306.12 1497.24 1333.88C1608.54 1379.59 1795.13 1461.84 1759.78 1618.51C1747.2 1674.25 1706.22 1727.47 1655.1 1749.96C1595.38 1776.25 1479.47 1795.57 1421.92 1767.37C1360.57 1737.28 1313.4 1645.65 1235 1686.13C1196.87 1705.84 1182.56 1756.56 1134.97 1763.26C1098.57 1768.38 1072.45 1745.42 1043.39 1727.55C960.099 1676.32 864.588 1660.36 779.22 1612.72C688.312 1562 613.188 1488.78 549.848 1406.86" transform="translate(5494.5 1364.481)" id="path32" fill="#91CA5B" stroke="none" />
          <path d="M549.845 1406.86C504.944 1348.79 486.854 1302.18 488.971 1225.99C491.068 1150.95 529.236 1091.29 497.343 1017.44C426.39 853.125 202.807 784.123 91.8508 649.924C-12.8003 523.319 -33.9732 380.652 59.3208 239.495C141.267 115.504 263.63 31.6789 411.99 6.75075C552.933 -16.9462 761.311 21.3967 863.636 127.268C947.889 214.457 949.781 324.843 914.06 434.412C890.965 505.236 837.686 609.394 894.325 681.196C953.736 756.51 1105.13 729.538 1188.65 751.195C1277.51 774.233 1393.05 856.031 1365.04 965.432C1342.62 1053.04 1245.99 1067.38 1183.67 1115.52C1147.28 1143.63 1116.77 1188.64 1155.74 1230.41C1187.8 1264.74 1252.19 1260.75 1294.92 1268.42C1367.12 1281.39 1429.65 1306.12 1497.24 1333.88C1608.54 1379.59 1795.13 1461.84 1759.77 1618.51C1747.19 1674.25 1706.22 1727.47 1655.1 1749.96C1595.37 1776.25 1479.46 1795.57 1421.92 1767.37C1360.57 1737.28 1313.39 1645.65 1235 1686.13C1196.87 1705.84 1182.56 1756.56 1134.97 1763.26C1098.57 1768.38 1072.44 1745.42 1043.38 1727.55C960.095 1676.32 864.588 1660.36 779.22 1612.72C688.305 1562 613.186 1488.78 549.845 1406.86" transform="translate(522.0012 1364.481)" id="path34" fill="#91CA5B" stroke="none" />
          <path d="M549.848 1406.86C504.947 1348.79 486.857 1302.18 488.975 1226C491.074 1150.96 529.242 1091.3 497.339 1017.44C426.391 853.123 202.808 784.124 91.851 649.916C-12.8003 523.316 -33.9733 380.655 59.3209 239.495C141.268 115.501 263.631 31.674 411.991 6.75222C552.932 -16.9468 761.309 21.3915 863.643 127.266C947.887 214.454 949.787 324.844 914.064 434.418C890.972 505.236 837.687 609.391 894.324 681.194C953.735 756.507 1105.14 729.547 1188.66 751.197C1277.51 774.23 1393.06 856.027 1365.04 965.432C1342.62 1053.05 1246 1067.38 1183.67 1115.52C1147.28 1143.63 1116.77 1188.65 1155.75 1230.41C1187.8 1264.75 1252.19 1260.75 1294.93 1268.42C1367.12 1281.4 1429.65 1306.12 1497.24 1333.88C1608.54 1379.59 1795.13 1461.84 1759.78 1618.51C1747.2 1674.25 1706.22 1727.47 1655.1 1749.97C1595.38 1776.25 1479.47 1795.57 1421.92 1767.37C1360.57 1737.29 1313.4 1645.65 1235 1686.14C1196.87 1705.85 1182.56 1756.57 1134.97 1763.26C1098.57 1768.38 1072.45 1745.42 1043.39 1727.55C960.099 1676.32 864.588 1660.36 779.22 1612.72C688.312 1562 613.188 1488.78 549.848 1406.86" transform="translate(5494.5 6336.98)" id="path36" fill="#91CA5B" stroke="none" />
          <path d="M1057.57 1004.27C1018.81 991.493 969.446 1018.16 930.886 1026.03C884.443 1035.53 838.894 1047.62 791.411 1047.58C641.401 1047.46 496.165 999.578 362.082 938.685C302.347 911.555 236.003 866.893 240.171 792.723C246.037 688.281 329.905 651.086 248.9 555.674C180.062 474.592 65.1119 442.122 16.2999 342.493C-28.2974 251.477 25.1261 153.529 97.9494 92.1382C171.477 30.171 320.36 -11.6973 415.436 2.92182C554.328 24.2836 634.448 119.915 702.268 229.18C838.853 449.263 1112.11 279.442 1308.84 363.209C1379.16 393.133 1385.66 442.56 1380.77 511.22C1378.84 538.3 1379.47 547.977 1365.62 570.9C1338.36 616.02 1261.96 618.278 1238.01 655.392C1207.6 702.512 1290.77 734.833 1328.56 751.381C1407.43 785.91 1493.41 805.482 1550.68 874.47C1646.73 990.18 1494.53 1142.83 1382.84 1177.68C1348.79 1188.3 1300.32 1198.81 1264.47 1188.59C1230.8 1178.99 1237.8 1183.6 1219.19 1151.34C1196.15 1111.38 1214.71 1074.68 1200.52 1037.18C1180.13 983.288 1082.75 991.702 1038.55 1004.27L1057.57 1004.27" transform="translate(1401.995 4546.195)" id="path38" fill="#B844A7" stroke="none" />
          <path d="M1057.57 1004.27C1018.82 991.493 969.45 1018.16 930.893 1026.03C884.45 1035.53 838.902 1047.62 791.414 1047.58C641.404 1047.46 496.167 999.578 362.079 938.685C302.349 911.555 236.006 866.893 240.173 792.723C246.041 688.281 329.907 651.086 248.895 555.674C180.066 474.592 65.1116 442.122 16.3014 342.493C-28.302 251.477 25.1325 153.529 97.9597 92.1382C171.473 30.171 320.36 -11.6973 415.434 2.92182C554.326 24.2836 634.452 119.915 702.267 229.18C838.862 449.263 1112.11 279.442 1308.85 363.209C1379.16 393.133 1385.66 442.56 1380.77 511.22C1378.85 538.3 1379.47 547.977 1365.63 570.9C1338.36 616.02 1261.97 618.278 1238.01 655.392C1207.6 702.512 1290.77 734.833 1328.56 751.381C1407.44 785.91 1493.41 805.482 1550.68 874.47C1646.73 990.18 1494.53 1142.83 1382.84 1177.68C1348.79 1188.3 1300.32 1198.81 1264.48 1188.59C1230.8 1178.99 1237.81 1183.6 1219.2 1151.34C1196.16 1111.38 1214.71 1074.68 1200.52 1037.18C1180.13 983.288 1082.74 991.702 1038.56 1004.27L1057.57 1004.27" transform="translate(6374.489 4546.195)" id="path40" fill="#B844A7" stroke="none" />
          <path d="M1830.65 1869.79C1718.9 1923.97 1619.03 1968.23 1494.62 1971.98C1388.27 1975.2 1253.68 1973.49 1156.55 1924.03C1093.16 1891.76 1059.26 1827.13 1017.48 1772.13C940.858 1671.25 885.932 1562.86 749.646 1548.05C656.69 1537.95 566.101 1544.69 474.756 1562.1C428.015 1570.99 371.975 1594.55 323.592 1588.22C243.505 1577.74 234.286 1456.2 207.475 1388.11C182.871 1325.59 151.792 1268.72 165.865 1194.17C178.564 1126.92 234.067 1116.73 296.164 1113.14C367.44 1109.04 374.172 1169.23 443.768 1178.16C524.64 1188.55 576.762 1146.21 582.391 1069.36C594.733 900.388 454.429 713.8 350.344 596.609C248.07 481.446 127.766 374.568 61.691 233.558C43.1635 194.017 -9.97255 106.67 1.64313 59.6107C25.7996 -38.2279 228.061 6.33554 290.754 39.3329C366.803 79.3614 425.509 128.778 467.367 202.888C521.856 299.364 543.426 485.514 672.313 504.369C778.267 519.883 831.622 417.311 920.312 519.346C993.795 603.898 977.873 684.711 992.662 787.552C1001.79 851.071 1002.41 919.651 1047.28 964.244C1099.84 1016.47 1172.7 1016.81 1244.2 1013.66C1371.46 1008.08 1523.52 979.629 1649.72 1004.61C1782.18 1030.85 1893.06 1112.52 2016.09 1161.35C2129.69 1206.43 2211.13 1256.17 2202.51 1391.44C2187.93 1619.93 2021.35 1777.36 1830.65 1869.79" transform="translate(3209.952 3503.699)" id="path42" fill="#CEEAEF" stroke="none" />
          <path d="M856.569 596.576C744.121 630.827 592.569 629.395 501.314 551.625C441.435 500.568 444.409 426.746 404.639 363.128C365.316 300.217 313.881 302.703 246.105 292.241C188.226 283.31 54.5946 262.038 18.9915 215.645C-25.6626 157.457 15.5902 62.1145 68.786 28.4409C166.177 -33.2179 334.099 17.6903 424.509 65.0085C468.933 88.2697 497.664 134.524 543.212 152.484C601.122 175.328 668.599 148.019 725.693 141.624C807.759 132.425 914.538 145.602 982.254 196.312C1119.36 298.953 991.453 555.484 856.569 596.576" transform="translate(2979.7 3327.683)" id="path44" fill="#CEEAEF" stroke="none" />
          <path d="M1965.16 1744.33C1868.81 1779.99 1702.56 1832.67 1595.63 1812.92C1373.58 1771.9 1400.26 1407.82 1394.83 1250.47C1388.53 1068.07 1320.7 979.264 1155.81 915.278C883.678 809.683 574.657 843.476 304.999 725.014C188.692 673.911 16.9917 608.005 1.86529 463.015C-13.2313 318.358 64.9961 230.233 175.346 150.556C269.575 82.5338 355.907 51.7203 469.24 25.1294C514.102 14.6096 589.684 -10.2528 636.744 4.62489C724.936 32.4867 752.881 171.134 802.189 239.874C891.833 364.847 996.474 477.789 1149.48 517.522C1338.3 566.563 1417.82 405.61 1527.82 274.732C1590.97 199.589 1780.11 99.6929 1875.3 177.05C2003.92 281.596 1771.23 475.108 1716.51 554.753C1680.83 606.697 1666.92 669.319 1736.03 694.869C1806.96 721.091 1903.15 660.593 1965.5 636.461C2037.56 608.561 2114.6 569.915 2194.61 583.377C2289.9 599.401 2359.57 713.897 2333.1 810.538C2287.93 975.416 2065.79 1012.21 1971.43 1136.98C1925.97 1197.08 1895.04 1253.38 1990.83 1258.03C2076.31 1262.18 2164.14 1208.55 2238.62 1172.11C2328.28 1128.25 2399.41 1101.01 2500.22 1098.89C2630.41 1096.17 2693.71 1119 2709.98 1249.65C2720.68 1335.66 2708.97 1378.56 2680.57 1458.61C2661.54 1512.28 2637.93 1575.93 2586.11 1608.11C2554.07 1628.02 2453.91 1650.09 2417.17 1631.7C2377.35 1611.77 2394.89 1567.28 2344.54 1557.79C2294.79 1548.41 2272.62 1590.96 2240.72 1617.93C2162.63 1683.93 2059.04 1709.56 1965.16 1744.33" transform="translate(3976.441 2182.074)" id="path46" fill="#CEEAEF" stroke="none" />
          <path d="M988.769 1432.96C898.776 1377.99 782.35 1245.23 765.106 1136.18C732.168 927.795 1091.05 828.245 818.073 649.961C603.947 510.114 326.243 559.64 127.064 405.055C97.8955 382.4 4.70081 335.659 0.155998 292.11C-5.42313 238.546 140.281 222.455 174.532 216.925C392.078 181.72 586.682 167.479 777.646 46.6267C884.724 -21.1385 918.268 -21.9939 1030.49 90.5737C1100.01 160.318 1080.66 187 1090.92 274.029C1097.39 328.866 1097.41 348.657 1158.87 367.274C1266.71 399.943 1393.84 357.707 1498.49 336.554C1549.49 326.241 1640.71 303.138 1684.04 346.976C1727.89 391.311 1701.21 487.101 1675.34 536.031C1611.66 656.534 1444.79 690.984 1390.58 811.756C1325.68 956.287 1497.27 957.182 1578.9 1013.14C1643.63 1057.5 1593.45 1104.99 1610.92 1153.44C1636.17 1223.49 1784.33 1245.63 1790.1 1350.62C1795.39 1446.65 1649.68 1551.66 1573.83 1585.94C1470.58 1632.57 1467.34 1560.65 1411.52 1507.26C1353.69 1451.97 1295.49 1482.9 1225.99 1486.42C1144.85 1490.52 1058.53 1475.59 988.768 1432.96" transform="translate(3365.157 4630.916)" id="path48" fill="#D194CA" stroke="none" />
          <path d="M1301.73 3117.07C1233.73 3080.03 1183.88 2987.79 1143.37 2926.19C1090.73 2846.15 1064.53 2760.19 1079.67 2664.13C1095.12 2566.12 1129.9 2472.44 1058.07 2387.59C969.234 2282.61 799.662 2304.04 677.895 2280.88C594.457 2265 272.318 2116.95 461.661 2020.87C564.96 1968.44 683.345 1974.09 785.381 1910.53C850.003 1870.26 837.632 1829.33 805.052 1760.48C752.672 1649.74 665.573 1608.25 561.449 1556.3C446.515 1498.98 339.766 1401.87 240.266 1321.57C150.284 1248.96 28.7458 1180.26 4.2611 1056.14C-17.041 948.207 43.3749 922.331 144.217 913.579C205.647 908.268 232.439 916.374 282.383 946.228C316.086 966.387 357.776 987.669 397.765 985.213C441.473 881.069 465.719 767.666 447.559 653.21C419.683 477.665 329.84 320.845 286.699 150.075C276.724 110.586 249.256 57.6639 281.687 23.9245C320.214 -16.135 429.609 -1.33384 464.217 34.8331C516.488 89.468 513.733 180.442 524.573 251.785C535.881 326.179 571.951 448.219 654.843 475.283C732.841 500.74 886.094 440.934 900.265 568.782C907.585 634.694 855.314 738.1 947.136 766.711C1007.12 785.398 1064.05 760.675 1122.84 805.099C1166.27 837.927 1210.79 909.472 1203.38 964.875C1188.7 1074.49 1023.04 1078.02 1057.37 1208.64C1078.06 1287.35 1175.46 1353.13 1235.36 1401.89C1333 1481.37 1463.65 1558.06 1510.54 1683.98C1525.7 1724.71 1501.85 1796.42 1521.34 1831.48C1553.2 1888.83 1655.83 1861.57 1703.01 1843.87C1820.35 1799.84 1923.65 1749.03 2031.25 1836.64C2095.62 1889.05 2115.91 1976.53 2154.87 2047.32C2178.45 2090.15 2224.05 2150.06 2225.64 2201.52C2227.55 2263.59 2165.4 2260.98 2130.8 2302.93C2039.28 2413.88 2205.93 2487.35 2254.6 2570.79C2342.03 2720.67 2318.8 2870.02 2266.2 3029.41C2236.89 3118.16 2152.62 3358.83 2002.66 3267.73C1954.03 3238.17 1950.89 3165.85 1892.35 3140.75C1703 3059.58 1484.78 3216.84 1301.73 3117.07" transform="translate(4389.913 2244.549)" id="path50" fill="#91CA5B" stroke="none" />
          <path d="M908.112 1157.72C836.369 1119.12 747.242 1052.07 688.805 995.546C640.264 948.596 600.911 896.395 623.675 830.043C650.408 752.134 761.642 679.955 721.912 587.685C702.151 541.763 642.621 515.987 600.096 495.694C513.555 454.379 417.963 425.757 328.657 390.308C239.311 354.86 102.07 333.668 38.989 256.886C6.54838 217.397 -22.8788 129.699 25.7124 91.2791C100.857 31.8302 246.76 87.9376 320.383 118.336C406.407 153.851 479.224 189.109 548.362 108.934C632.159 11.777 839.134 -70.0165 894.219 92.3581C919.738 167.556 943.059 250.243 982.859 319.352C1019.34 382.674 1083.96 424.272 1139.06 470.917C1203.64 525.626 1285.49 562.274 1345.76 623.257C1401.64 679.819 1388.74 755.086 1400.8 830.159C1414.91 918.001 1463.92 944.409 1539.86 975.974C1587.59 995.805 1642.39 1013.7 1681.06 1049.57C1731.67 1096.54 1746.49 1169.84 1770.54 1232.38C1812.84 1342.33 1936.83 1514.92 1888.17 1640.8C1847.18 1746.83 1648.77 1795.89 1564.86 1718.35C1490.17 1649.32 1512.14 1529.28 1512.14 1438.42C1512.14 1368.62 1508.78 1322.58 1470.93 1262.48C1428.14 1194.55 1354.37 1152.25 1279.53 1192.86C1173.3 1250.53 1011.26 1213.19 908.113 1157.72" transform="translate(3205.225 2005.043)" id="path52" fill="#CEEAEF" stroke="none" />
          <path d="M266.711 450.379C173.377 488.757 110.087 551.629 60.1534 640C11.5225 726.054 2.78076 800.602 3.15856 897.228C3.58613 1010.3 -20.2421 1160.34 56.7225 1255.97C173.079 1400.55 413.967 1333.57 558.169 1440.66C611.674 1480.38 614.736 1517.69 597.929 1581.33C583.28 1636.82 552.341 1683.11 521.651 1730.52C509.24 1749.71 476.451 1786.24 478.57 1812.84C486.028 1906.19 783.155 1850.88 838.966 1841.46C973.492 1818.74 1122.74 1761.12 1142.15 1605.38C1151.66 1529 1081.59 1490.66 1080.22 1417.46C1077.66 1278.56 1273.59 1304.07 1359.43 1264.11C1415.54 1238.01 1484.83 1179.85 1472.33 1112.27C1462.36 1058.33 1399.94 1031.58 1357.23 1012.29C1239.46 959.116 1121.43 956.092 997.519 930.295C960.523 922.598 779.445 884.548 794.919 821.059C804.963 779.897 932.906 730.768 961.926 716.587C1084.12 656.867 1209.16 605.969 1319.72 524.986C1364.83 491.959 1506.39 414.617 1499.53 344.196C1491.68 263.701 1352.32 236.114 1290.83 239.893C1200.82 245.402 1134.82 279.484 1067.93 338.14C1012 387.208 980.304 449.225 897.95 463.019C756.482 486.718 797.485 353.256 845.361 277.385C886.583 212.087 1009.67 83.2591 900.695 17.1049C861.004 -6.9819 786.566 -8.3344 752.912 30.6201C726.458 61.2109 734.385 99.8273 734.385 140.88C734.385 231.867 728.895 294.849 653.422 350.7C600.227 390.062 522.844 374.359 460.957 385.12C392.058 397.103 330.876 423.985 266.711 450.379" transform="translate(5325.597 3266.709)" id="path54" fill="#CEEAEF" stroke="none" />
          <path d="M817.959 1177.56C747.711 1100.15 719.142 1017.04 733.026 917.052C741.44 856.457 754.909 796.191 707.884 750.036C595.035 639.269 409.246 640.034 266.579 595.461C150.98 559.351 -88.6016 369.103 34.0207 235.493C100.073 163.511 233.057 132.363 316.711 183.997C366.899 214.966 389.12 270.429 432.314 307.464C503.371 368.377 651.562 379.704 736.86 348.159C905.589 285.764 958.845 75.8853 1139.52 12.1281C1288.3 -40.3914 1612.11 83.4436 1604.66 271.951C1600.14 386.487 1506.03 474.758 1484.6 584.382C1479.2 611.989 1469.08 611.77 1483.28 637.816C1515.68 697.257 1676.6 720.38 1731.02 748.971C1869.65 821.818 1910.22 960.183 1919.41 1107.49C1925.48 1204.56 1875.35 1247.56 1793.8 1285.65C1727.5 1316.62 1729.61 1363.14 1742.46 1435.18C1769.18 1584.97 1822.7 1735.59 1726.95 1875.4C1693.18 1924.7 1660.67 1956.1 1604.96 1975.21C1550.63 1993.84 1444.99 2015.65 1387.75 2006.89C1323.21 1997.01 1307.21 1887.75 1314.61 1825.64C1325.97 1730.18 1569.64 1504.59 1331.49 1517.13C1244.32 1521.72 1013.2 1587.5 1016.46 1429.96C1017.75 1368.17 1158.58 1278.5 1081.66 1238.82C1049.66 1222.31 983.767 1245.88 947.985 1242.81C895.766 1238.3 853.278 1216.49 817.959 1177.56" transform="translate(2060.105 3970.947)" id="path56" fill="#91CA5B" stroke="none" />
          <path d="M1281.09 573.008C1212.96 573.008 1144.33 575.822 1076.3 573.137C967.579 568.84 924.616 529.896 836.225 476.014C781.905 442.897 732.817 426.607 667.15 435.04C575.526 446.795 567.371 489.529 508.517 544.296C401.101 644.234 246.436 608.471 127.384 554.888C71.5329 529.747 -12.8216 499.573 1.64144 423.693C67.3262 396.951 128.856 411.729 197.089 396.623C236.123 387.981 268.961 378.762 268.474 331.284C267.599 245.081 108.896 254.708 91.8108 150.026C72.6169 32.4266 233.875 -57.337 308.165 44.0722C340.904 88.775 332.709 133.309 382.623 168.444C441.537 209.945 486.876 186.912 547.909 174.183C606.684 161.93 626.365 173.516 675.285 205.689C738.714 247.398 788.27 271.107 862.977 288.491C918.56 301.409 968.633 320.891 1025.78 324.76C1087.11 328.907 1151.54 316.158 1212.28 324.084C1289.76 334.178 1631.03 515.197 1424.81 573.166C1384.38 584.523 1323.38 573.007 1281.08 573.007L1281.08 573.007" transform="translate(2951.804 3493.201)" id="path58" fill="#CEEAEF" stroke="none" />
          <path d="M54.8424 288.81C59.5265 217.783 372.098 158.074 110.982 93.3416C85.453 87.0065 -26.5972 73.9987 5.84341 15.6116C29.3434 -26.6744 160.468 30.4695 196.917 29.2858C259.361 27.2471 359.428 27.2173 377.478 99.2688C382.61 119.716 381.874 140.252 374.296 160.092C307.415 334.865 470.195 178.162 486.137 292.539C491.358 330.062 345.684 343.01 361.049 363.556C373.44 380.154 569.615 497.813 402.46 487.401C300.474 481.046 45.9813 422.958 54.8423 288.81L54.8423 288.81" transform="translate(3356.904 3962.64)" id="path60" fill="#B844A7" stroke="none" />
          <path d="M1063.88 683.771C898.079 718.271 672.536 714.84 815.078 487.017C951.573 268.837 417.547 325.166 324.82 320.108C171.518 311.713 -193.499 113.866 129.128 9.1208C251.605 -30.6324 342.91 70.3831 452.533 104.569C610.092 153.704 672.029 23.0011 815.177 25.1571C956.098 27.2625 890.6 287.386 1127 283.863C1210.66 282.635 1357.32 236.348 1418.28 324.343C1458.95 383.1 1693.75 516.417 1633.68 575.818C1567.32 641.445 1464.04 506.449 1381.82 518.983C1259.28 537.679 1184.65 658.62 1063.88 683.771L1063.88 683.771" transform="translate(2807.95 2431.993)" id="path62" fill="#91CA5B" stroke="none" />
          <path d="M381.016 217.328C386.098 46.622 93.7552 166.638 2.25134 112.955C-39.6569 -42.4056 517.273 1.75008 526.641 20.0191C551.145 67.8049 767.558 42.7535 673.936 141.139C651.182 165.057 379.405 271.379 381.016 217.328C384.308 106.76 379.853 256.282 381.016 217.328" transform="translate(3806.977 4023.99)" id="path64" fill="#91CA5B" stroke="none" />
          <path d="M1031.02 1282.32C962.627 1292.57 895.021 1310.75 826.391 1318.7C701.67 1333.14 548.756 1343.51 453.102 1252.39C418.675 1219.61 376.844 1178.01 362.851 1128.89C350.136 1084.25 362.742 1064.59 333.622 1024.3C274.678 942.729 180.453 889.972 100.956 831.177C78.7266 814.738 37.3573 793.108 31.4719 763.044C19.0834 699.824 160.463 650.964 212.344 640.293C291.305 624.043 365 635.927 441.813 608.43C483.924 593.353 586.766 540.635 577.437 484.883C570.674 444.517 489.871 383.216 459.578 361.536C399.71 318.653 318.752 302.513 248.324 277.531C186.339 255.543 9.6437 220.616 0.293422 129.868C-8.67697 42.8697 190.515 -4.61751 258.358 0.354969C330.309 5.61589 343.773 64.7386 393.98 104.011C416.084 121.315 434.261 134.254 464.446 129.112C515.569 120.43 492.093 94.2353 513.809 66.8073C560.232 8.19172 656.013 46.1217 665.997 109.083C674.053 159.862 651.766 209.289 709.209 234.34C749.068 251.734 806.371 240.287 849.095 242.644C911.331 246.065 969.519 270.033 1024.04 302.095C1088.79 340.184 1118.59 383.415 1130.78 455.198C1141.3 517.135 1089.58 559.262 1152.61 603.925C1246.51 670.476 1349.91 656.583 1455.2 690.217C1529.51 713.956 1579.8 731.767 1611.5 796.837C1625.78 826.155 1657.08 887.097 1625.58 919.22C1586.59 958.98 1401.94 905.963 1438.38 1027.91C1452.69 1075.79 1500.57 1075.74 1506.77 1132.87C1511.27 1174.32 1504.17 1216.18 1467.18 1240.81C1405.76 1281.71 1318.43 1257.99 1250.17 1258.46C1178.21 1258.96 1102.15 1271.67 1031.02 1282.32" transform="translate(2459.247 5393.705)" id="path66" fill="#CEEAEF" stroke="none" />
          <path d="M947.34 639.937C847.612 579.779 834.435 521.73 799.11 421.971C728.346 222.085 410.639 332.078 247.579 299.975C171.423 284.998 73.7637 246.401 27.4101 180.814C-42.2128 82.3084 31.1086 62.4678 131.914 41.066C192.389 28.2268 205.55 52.463 257.206 74.2227C305.12 94.4109 352.305 96.5694 403.319 93.9933C406.746 11.1809 421.71 -3.22923 517.201 0.539499C611.66 4.26889 656.19 96.0022 740.299 134.947C840.76 181.469 969.806 193.374 1077.01 224.701C1130.7 240.384 1176.94 262.96 1206.28 302.66C1212.88 311.611 1200.51 332.773 1207 342.947C1218.92 361.604 1271.33 383.881 1291.32 390.554C1368.17 416.223 1600.75 358.561 1619.24 478.011C1631.43 556.607 1539.83 560.316 1483.3 560.903C1445.63 561.291 1394.16 551.674 1360.87 568.133C1332.47 582.176 1316.98 614.487 1289.29 627.893C1262.93 640.652 1236.95 636.893 1207.97 641.428C1117.96 655.51 1033.47 691.879 947.34 639.936" transform="translate(2209.637 6119.323)" id="path68" fill="#B844A7" stroke="none" />
          <path d="M302.363 1001.98C360.521 1034 412.802 999.229 470.751 985.555C541.003 968.967 628.509 989.811 680.431 1042.27C738.411 1100.85 728.814 1213.99 780.836 1281.56C856.368 1379.69 1006.31 1321.02 1058.73 1223.99C1072.11 1199.2 1066.03 1164.69 1077.85 1139.38C1106.22 1078.66 1165.48 1075.47 1222.27 1050.02C1309.08 1011.12 1521.22 911.266 1531.59 803.074C1544.84 664.939 1412.74 525.261 1277.94 540.646C1177.58 552.093 1112.43 635.78 1010.26 642.154C934.048 646.908 885.815 615.084 882.364 540.885C878.297 453.369 847.616 403.485 800.925 327.565C729.758 211.835 609.305 140.927 495.067 62.2326C394.165 -7.29266 204.972 -24.0501 97.3971 40.1648C-7.42304 102.719 -58.1921 266.294 104.667 279.739C186.852 286.532 340.303 255.115 401.405 318.515C423.006 340.951 418.988 357.23 418.172 390.745C387.154 398.83 357.995 414.852 329.006 424.548C303.835 460.996 328.857 482.796 350.328 507.867C367.025 527.369 371.67 514.222 381.386 540.884C404.349 603.936 338.782 614.348 303.477 648.33C272.2 678.413 255.512 714.613 243.419 756.461C219.929 837.692 216.956 954.973 302.363 1001.98" transform="translate(3956.191 5478.945)" id="path70" fill="#91CA5B" stroke="none" />
          <path d="M899.708 1118.65C1035.25 1113.12 1155.51 977.144 1304.84 964.444C1455.1 951.665 1530.41 1077.79 1680.32 1067.8C2114.97 1038.87 1679.89 939.522 1707.65 888.424C1732.79 886.614 1959.87 850.892 1835.57 797.815C1720.65 748.756 1700.42 736.086 1805.62 642.693C1950.13 514.343 1800.44 455.468 1705.16 381.069C1608.43 305.686 1561.1 191.955 1512.69 83.4748C1447.33 -62.9158 1286.78 1.87586 1383.97 134.523C1451.73 226.981 1556.95 348.649 1426.76 447.84C1283.91 556.679 1120.01 403.356 984.52 525.73C910.131 592.928 931.891 779.169 783.889 730.06C640.493 682.453 569.456 632.221 443.532 759.298C376.732 826.696 -178.02 1339.72 58.2034 1375.31C189.915 1395.16 167.966 1249.27 272.926 1232.61C342.004 1221.64 558.765 1418.04 515.315 1208.91C510.024 1183.39 403.712 932.471 496.469 970.928C645.376 1032.67 716.582 1126.1 899.709 1118.65L899.709 1118.65" transform="translate(4363.169 4875.929)" id="path72" fill="#CEEAEF" stroke="none" />
          <path d="M614.362 418.818C491.482 348.915 385.806 239.809 269.549 159.155C185.892 101.126 144.62 138.499 54.5186 139.497C19.5222 139.877 -0.0496522 140.74 0.000121399 100.712C0.109502 -24.6805 228.248 -9.62781 296.272 22.8684C325.977 37.0599 365.429 63.3593 402.226 45.2177C438.217 27.4719 422.742 8.10608 473.502 0.958624C532.008 -7.27681 555.279 39.1841 592.076 77.7288C624.904 112.109 641.433 137.838 686.036 160.916C731.077 184.236 758.237 171.954 804.222 182.874C842.66 192.003 877.467 224.215 911.161 241.907C988.026 282.304 1132.55 272.229 1140.81 380.888C1150.97 514.409 1017.85 439.007 952.681 428.475C834.853 409.43 729.516 484.336 614.363 418.818" transform="translate(3140.497 2796.971)" id="path74" fill="#CEEAEF" stroke="none" />
          <path d="M560.762 363.319C548.68 321.621 559.651 308.444 527.174 276.55C477.989 228.258 406.537 219.278 340.67 210.128C250.148 197.578 79.8781 216.095 17.1818 133.264C-45.2311 50.8012 77.6096 15.5763 142.803 17.2572C206.102 18.9079 260.857 59.0755 324.377 45.232C383.97 32.234 420.436 -5.7455 491.069 0.738583C583.515 9.21165 513.523 50.2044 544.406 105.558C564.584 141.727 693.924 144.432 733.773 163.536C790.132 190.547 807.486 199.069 825.427 254.214C843.009 308.284 856.823 325.061 918.502 343.31C949.868 352.579 947.581 430.368 931.778 449.482C891.451 498.251 827.684 443.266 779.033 440.849C684.864 436.145 596.615 487.023 560.762 363.319" transform="translate(2336.405 5611.772)" id="path76" fill="#B844A7" stroke="none" />
          <path d="M326.239 462.761C294.326 294.193 142.456 347.976 40.1318 260.022C-31.4124 198.551 -7.29583 -14.8889 112.462 0.824059C160.814 7.16888 197.233 83.716 227.754 111.124C281.129 159.059 332.544 118.026 393.965 163.306C449.547 204.28 456.688 230.723 462.406 292.442C475.911 438.117 813.574 474.725 679.336 615.736C624.679 673.168 569.384 672.592 496.03 654.651C382.339 626.864 347.174 573.25 326.239 462.761" transform="translate(5409.48 4132.639)" id="path78" fill="#B844A7" stroke="none" />
          <path d="M298.953 583.353C262.634 541.266 268.691 456.058 272.649 405.298C278.765 327.33 301.927 309.548 220.338 269.271C171.139 244.995 43.3951 222.331 13.4205 170.967C-59.8248 45.4118 187.439 1.41727 256.04 0.174146C310.41 -0.816344 354.695 0.406867 374.238 60.4466C382.283 85.1728 368.141 118.426 377.042 141.191C402.273 205.693 527.978 180.194 519.605 261.345C514.055 315.227 375.769 347.299 410.119 408.033C447.393 473.978 668.333 375.981 644.893 524.011C634.828 587.609 570.404 583.482 524.736 586.446C519.416 586.784 494.971 617.673 484.896 621.949C465.394 630.204 445.235 626.932 424.51 625.52C384.75 622.844 326.829 615.654 298.953 583.353" transform="translate(4482.751 2758.129)" id="path80" fill="#B844A7" stroke="none" />
          <path d="M889.177 1819.44C803.366 1816.73 744.035 1775.69 692.469 1711.06C655.695 1665 615.962 1618.77 616.07 1557.34C616.133 1520.1 630.344 1485.04 639.461 1449.55C654.809 1389.79 661.057 1327.87 668.251 1266.72C674.692 1211.94 679.885 1163.77 642.001 1119.57C593.974 1063.53 510.529 1036.13 445.518 1006.88C327.79 953.893 189.116 913.327 79.9699 846.146C-40.9202 771.74 -25.8395 549.268 132.648 538.169C209.161 532.816 299.494 591.13 358.395 515.451C402.805 458.383 405.769 372.736 398.715 303.918C390.211 220.987 347.796 139.65 398.027 61.5783C446.295 -13.4477 559.831 -11.0271 634.947 21.8063C689.17 45.5231 714.915 129.143 731.658 182.286C756.718 261.854 734.894 333.955 706.613 407.944C681.956 472.439 611.642 611.933 646.259 683.187C709.072 812.453 844.363 622.333 867.842 567.46C883.906 529.903 888.428 498.059 924.182 481.607C945.922 471.603 991.171 466.6 1006.79 489.357C1017.15 504.43 1009.36 532.548 1010.85 549.435C1014.05 585.505 1024.75 621.283 1016.92 658.014C1003.43 721.367 950.477 768.186 928.359 828.388C917.14 858.915 895.331 921.203 919.219 952.5C944.41 985.498 1039.84 941.103 1083.24 949.775C1143.09 961.729 1197.26 1047.28 1182.62 1110.57C1166.09 1182.05 1088.28 1222.79 1018.61 1211.02C973.201 1203.34 934.873 1181.72 897.044 1225.56C848.542 1281.77 900.362 1334.22 960.093 1343.89C1015.82 1352.91 1076.11 1335.18 1132.01 1343.16C1183 1350.45 1238.19 1380.28 1279.94 1408.97C1326.82 1441.15 1383.67 1474.16 1398.19 1528.26C1408.19 1565.58 1414.77 1614.93 1374.71 1636.07C1329.66 1659.86 1094.27 1580 1121.34 1693.13C1128.79 1724.2 1161.87 1739.27 1142.6 1776.95C1126.33 1808.77 1069.43 1803.01 1039.31 1809.78C988.079 1821.28 941.645 1821.1 889.177 1819.45" transform="translate(2041.979 2071.252)" id="path82" fill="#91CA5B" stroke="none" />
          <path d="M41.0584 562.919C13.1463 611.46 -41.7649 781.14 54.4841 798.793C145.248 815.441 140.994 673.775 146.992 622.27C162.057 492.857 295.953 484.324 410.084 474.846C573.624 461.271 895.33 413.277 859.372 185.658C846.409 103.542 768.29 45.4937 675.782 85.7012C600.266 118.52 587.769 272.557 499.352 269.891C486.979 269.513 474.357 271.542 462.392 268.728C432.075 176.677 510.334 -20.9781 355.523 1.81563C314.002 7.92195 253.768 26.1011 261.744 86.0693C267.971 132.92 333.053 141.99 375.633 148.483C376.683 170.601 387.556 232.986 371.356 249.186C349.792 270.756 296.734 244.273 269.972 262.273C160.243 336.134 343.46 329.978 391.134 332.345C433.489 334.463 350.429 385.233 353.658 383.522C323.193 399.722 262.684 392.651 226.362 406.524C149.75 435.762 82.0271 491.653 41.0584 562.918" transform="translate(1853.581 6515.743)" id="path84" fill="#B844A7" stroke="none" />
          <path d="M41.0584 562.929C13.1463 611.469 -41.7649 781.155 54.4841 798.805C145.248 815.451 140.994 673.789 146.992 622.281C162.057 492.868 295.953 484.34 410.084 474.862C573.624 461.284 895.33 413.288 859.372 185.66C846.409 103.556 768.29 45.4983 675.782 85.7059C600.266 118.531 587.769 272.562 499.352 269.894C486.979 269.513 474.357 271.545 462.392 268.737C432.075 176.687 510.334 -20.97 355.523 1.81394C314.002 7.93211 253.768 26.1135 261.744 86.0749C267.971 132.925 333.053 141.996 375.633 148.484C376.683 170.607 387.556 232.996 371.356 249.196C349.792 270.756 296.734 244.282 269.972 262.287C160.243 336.137 343.46 329.979 391.134 332.361C433.489 334.466 350.429 385.24 353.658 383.531C323.193 399.73 262.684 392.66 226.362 406.529C149.75 435.769 82.0271 491.663 41.0584 562.929" transform="translate(1853.581 1543.241)" id="path86" fill="#B844A7" stroke="none" />
          <path d="M41.0557 562.929C13.1499 611.469 -41.7661 781.155 54.4814 798.805C145.249 815.451 140.993 673.789 146.99 622.281C162.056 492.868 295.956 484.34 410.085 474.862C573.621 461.284 895.331 413.288 859.38 185.66C846.412 103.556 768.284 45.4983 675.786 85.7059C600.273 118.531 587.772 272.562 499.351 269.894C486.98 269.513 474.36 271.545 462.395 268.737C432.083 176.687 510.34 -20.97 355.516 1.81394C313.996 7.93211 253.769 26.1135 261.745 86.0749C267.97 132.925 333.051 141.996 375.635 148.484C376.679 170.607 387.559 232.996 371.359 249.196C349.788 270.756 296.732 244.282 269.969 262.287C160.246 336.137 343.463 329.979 391.129 332.361C433.485 334.466 350.424 385.24 353.656 383.531C323.185 399.73 262.68 392.66 226.36 406.529C149.755 435.769 82.0191 491.663 41.0557 562.929" transform="translate(6826.08 1543.241)" id="path88" fill="#B844A7" stroke="none" />
          <path d="M374.751 708.067C522.086 744.102 605.127 638.619 724.487 575.764C841.291 514.256 984.46 528.591 1074.44 625.469C1156.23 713.537 1241.98 812.645 1380.27 779.877C1468.07 759.074 1578.5 677.421 1592.79 585.884C1605.46 504.641 1572.46 484.161 1502.35 449.788C1422.61 410.707 1332.95 393.801 1250.95 364.121C1160.61 331.423 1141.6 271.924 1126.01 182.178C1116.85 129.416 1107.24 63.129 1064.26 31.7017C995.101 -18.8786 855.762 -1.55239 784.316 32.4198C693.658 75.5413 653.201 134.678 620.711 222.591C594.735 292.855 560.564 344.282 486.821 365.636C414.601 386.556 385.044 380.826 338.084 320.767C281.765 248.763 270.756 212.538 176.1 200.339C108.812 191.664 11.0823 218.734 0.92846 297.497C-17.808 442.652 251.881 678.01 374.751 708.067" transform="translate(4596.662 1563.389)" id="path90" fill="#B844A7" stroke="none" />
          <path d="M374.751 708.071C522.086 744.102 605.127 638.615 724.487 575.763C841.291 514.253 984.46 528.594 1074.44 625.468C1156.23 713.53 1241.98 812.642 1380.27 779.873C1468.07 759.069 1578.5 677.41 1592.79 585.877C1605.46 504.636 1572.46 484.16 1502.35 449.79C1422.61 410.706 1332.95 393.8 1250.95 364.114C1160.61 331.415 1141.6 271.923 1126.01 182.17C1116.85 129.412 1107.24 63.1283 1064.26 31.7026C995.101 -18.8775 855.762 -1.55342 784.316 32.4188C693.658 75.5401 653.201 134.673 620.711 222.587C594.735 292.848 560.564 344.274 486.821 365.636C414.601 386.55 385.044 380.822 338.084 320.764C281.765 248.762 270.756 212.532 176.1 200.34C108.812 191.658 11.0823 218.729 0.92846 297.492C-17.808 442.65 251.881 678.008 374.751 708.071" transform="translate(4596.662 6535.889)" id="path92" fill="#B844A7" stroke="none" />
          <path d="M2.59702 640.762C-21.7951 457.238 131.164 340.165 229.809 200.946C316.579 78.4932 409.413 1.57879 563.277 0.116907C643.781 -0.638921 714.736 0.206378 754.008 69.5825C802.862 155.865 782.001 195.894 721.577 260.983C676.484 309.575 603.345 345.217 565.705 397.926C481.375 516.002 753.533 537.305 803.107 595.095C913.97 724.35 720.501 821.741 612.237 811.557C549.021 805.61 440.402 800.995 517.266 893.951C553.58 937.878 587.487 939.907 610.519 996.703C629.384 1043.22 647.996 1090.1 616.441 1135.78C582.161 1185.42 519.741 1198.44 464.403 1199.51C426.133 1200.25 343.951 1212.76 310.655 1193.93C265.549 1168.43 256.101 1111.28 234.187 1069.12C212.106 1026.66 176.165 995.112 147.79 955.511C79.9273 860.815 18.2216 758.342 2.59705 640.762" transform="translate(1611.601 3205.33)" id="path94" fill="#CEEAEF" stroke="none" />
          <path d="M2.59745 640.762C-21.7974 457.238 131.166 340.165 229.811 200.946C316.581 78.4932 409.407 1.57879 563.277 0.116907C643.782 -0.638921 714.729 0.206378 754.012 69.5825C802.862 155.865 781.997 195.894 721.581 260.983C676.491 309.575 603.345 345.217 565.703 397.926C481.38 516.002 753.534 537.305 803.11 595.095C913.967 724.35 720.497 821.741 612.236 811.557C549.016 805.61 440.406 800.995 517.271 893.951C553.58 937.878 587.483 939.907 610.525 996.703C629.381 1043.22 647.988 1090.1 616.443 1135.78C582.162 1185.42 519.737 1198.44 464.393 1199.51C426.135 1200.25 343.95 1212.76 310.654 1193.93C265.553 1168.43 256.096 1111.28 234.187 1069.12C212.099 1026.66 176.168 995.112 147.794 955.511C79.9198 860.815 18.221 758.342 2.59745 640.762" transform="translate(6584.104 3205.33)" id="path96" fill="#CEEAEF" stroke="none" />
          <path d="M4.95209 118.909C-27.5084 8.95797 107.246 -15.6856 186.856 8.49046C307.478 45.0879 506.636 131.221 485.562 292.587C478.879 343.834 253.825 313.949 217.197 305.834C124.361 285.258 32.3605 211.656 4.95209 118.909" transform="translate(6325.893 3734.831)" id="path98" fill="#B844A7" stroke="none" />
          <path d="M4.95211 118.911C-27.5083 8.95853 107.246 -15.6753 186.856 8.48119C307.479 45.0889 506.648 131.223 485.564 292.58C478.881 343.837 253.826 313.952 217.198 305.827C124.362 285.261 32.3603 211.658 4.95211 118.911" transform="translate(4220.834 4795.744)" id="path100" fill="#91CA5B" stroke="none" />
          <path d="M4.9521 118.911C-27.5085 8.96051 107.246 -15.6771 186.856 8.48214C307.479 45.0884 506.647 131.22 485.563 292.585C478.88 343.832 253.825 313.951 217.198 305.832C124.361 285.262 32.3605 211.654 4.9521 118.911" transform="translate(6339.117 2339.33)" id="path102" fill="#D194CA" stroke="none" />
          <path d="M3.4232 82.161C-19.0128 6.19134 74.1123 -10.8346 129.118 5.86308C212.477 31.1531 350.105 90.674 335.536 202.187C330.922 237.601 175.402 216.946 150.092 211.336C85.9467 197.125 22.3685 146.266 3.4232 82.161" transform="translate(5230.915 4865.36)" id="path104" fill="#B844A7" stroke="none" />
          <path d="M469.516 534.669C521.508 513.606 555.491 478.639 618.084 487.828C688.515 498.161 742.934 554.45 819.322 539.572C867.008 530.284 910.099 501.135 891.164 446.218C869.623 383.773 786.145 378.433 732.81 371.71C646.1 360.76 541.28 369.054 562.83 269.624C567.584 247.665 597.787 220.058 574.894 193.902C556.734 173.147 475.782 178.736 453.405 185.23C388.474 204.056 361.046 296.903 287.065 280.852C178.098 257.222 295.787 104.511 258.265 37.0131C211.603 -46.8982 61.483 29.7751 27.9385 90.4757C-42.3527 217.75 30.9419 300.593 126.523 378.492C226.908 460.29 322.758 594.101 469.516 534.669" transform="translate(5841.168 2791.831)" id="path106" fill="#B844A7" stroke="none" />
          <path d="M245.028 786.304C280.282 705.342 359.377 627.274 350.018 535.552C340.418 441.403 281.117 404.457 208.472 363.633C108.611 307.523 -84.4653 192.908 41.0664 60.0429C137.587 -42.1218 215.423 -3.51546 270.789 97.9332C296.622 145.251 319.635 232.051 374.056 251.215C411.556 264.432 442.448 240.892 482.426 259.579C543.63 288.15 574.519 349.412 586.457 408.823C594.948 451.079 592.909 483.857 583.092 523.498C569.678 577.639 552.795 570.061 527.194 606.37C498.778 646.677 438.89 719.454 499.768 764.703C519.762 779.561 553.008 765.062 573.337 782.753C585.726 793.544 588.9 820.763 598.34 834.517C643.48 900.323 649.63 909.791 742.472 876.366C821.943 847.754 909.409 758.687 996.07 784.335C1121.96 821.599 1018.09 972.882 950.442 1020.85C882.677 1068.9 782.242 1035.38 707.526 1026.6C624.958 1016.9 581.779 1062.79 500.51 1072.08C357.9 1088.38 179.38 937.07 245.028 786.304" transform="translate(2304.62 3810.235)" id="path108" fill="#B844A7" stroke="none" />
          <path d="M488.742 522.068C348.686 462.965 189.885 352.516 89.072 236.647C53.3594 195.624 -29.7014 111.499 10.944 50.8642C40.063 7.39465 151.586 -9.91963 198.378 5.58459C292.348 36.7125 304.033 129.639 377.587 172.879C496.758 242.932 597.391 169.09 704.927 291.623C754.045 347.593 781.026 393.599 854.231 422.877C916.765 447.889 985.933 436.989 1046.51 457.704C1235.78 522.416 982.82 627.326 910.092 637.957C753.906 660.791 629.892 581.619 488.742 522.068" transform="translate(3742.823 3359.09)" id="path110" fill="#91CA5B" stroke="none" />
          <path d="M158.65 355.128C153.09 329.559 165.442 297.387 158.292 273.201C143.543 223.317 97.657 205.248 60.6616 176.198C0.394789 128.89 -32.1651 67.3905 46.2214 22.867C73.6498 7.29313 123.504 -0.98102 154.652 0.0929911C241.86 3.08643 237.464 98.6474 248.115 174.09C267.379 310.425 380.513 231.005 477.546 273.877C524.327 294.543 571.984 352.84 583.003 402.883C601.322 486.003 547.927 499.688 476.731 514.207C358.246 538.373 189.022 494.605 158.65 355.128" transform="translate(5455.872 3545.384)" id="path112" fill="#D194CA" stroke="none" />
          <path d="M147.941 370.112C118.902 309.995 110.399 241.752 87.2964 180.312C70.917 136.673 3.87796 96.6248 0.188168 54.2988C-3.47152 12.0229 47.0986 -2.39739 79.5891 0.31758C117.121 3.45016 188.019 22.4947 213.071 53.8118C239.077 86.3219 217.635 113.412 218.699 151.322C220.847 226.586 263.86 227.282 328.691 247.461C363.708 258.36 408.838 281.502 408.549 321.213C408.41 341.839 379.948 365.011 381.837 385.408C384.681 416.247 436.127 430.618 459.975 440.583C499.824 457.24 557.853 490.685 574.064 533.986C587.311 569.39 566.397 601.92 528.615 610.125C463.555 624.237 375.622 563.732 321.839 531.957C254.512 492.147 182.719 442.134 147.941 370.112" transform="translate(5676.703 6233.874)" id="path114" fill="#CEEAEF" stroke="none" />
          <path d="M242.841 298.059C196.709 257.543 165.409 203.174 123.932 159.515C94.4854 128.516 22.6557 117.805 4.6188 83.5549C-13.3987 49.3441 25.1379 19.9466 54.0839 11.1153C87.5279 0.901752 155.336 -7.36261 187.902 10.3595C221.735 28.7577 212.764 58.8215 227.007 90.2677C255.283 152.693 292.593 138.571 355.546 133.33C389.557 130.515 436.57 134.503 450.268 167.918C457.392 185.282 440.998 214.461 449.781 230.93C463.068 255.833 512.467 250.303 536.513 250.512C576.702 250.87 638.469 259.094 667.632 289.884C691.496 315.075 684.884 349.514 655.201 369.325C604.089 403.416 507.047 382.701 449.549 374.407C377.549 364.024 298.109 346.601 242.841 298.059" transform="translate(2043.38 5098.579)" id="path116" fill="#D194CA" stroke="none" />
          <path d="M242.838 298.059C196.704 257.543 165.407 203.174 123.926 159.515C94.4787 128.516 22.656 117.805 4.61583 83.5549C-13.3947 49.3441 25.1422 19.9466 54.0823 11.1153C87.5272 0.901752 155.332 -7.36261 187.902 10.3595C221.725 28.7577 212.765 58.8215 227.006 90.2677C255.28 152.693 292.583 138.571 355.535 133.33C389.547 130.515 436.557 134.503 450.271 167.918C457.392 185.282 440.993 214.461 449.784 230.93C463.071 255.833 512.458 250.303 536.504 250.512C576.692 250.87 638.461 259.094 667.629 289.884C691.487 315.075 684.884 349.514 655.198 369.325C604.081 403.416 507.047 382.701 449.545 374.407C377.544 364.024 298.103 346.601 242.838 298.059" transform="translate(5345.125 5217.92)" id="path118" fill="#D194CA" stroke="none" />
          <path d="M313.996 389.235C254.346 336.327 213.88 265.34 160.246 208.305C122.167 167.819 29.3008 153.847 5.9699 109.113C-17.3212 64.4303 32.503 26.043 69.9361 14.4965C113.177 1.18 200.852 -9.61043 242.959 13.5219C286.707 37.5492 275.111 76.8121 293.519 117.875C330.087 199.394 378.32 180.956 459.73 174.124C503.706 170.424 564.48 175.645 582.192 219.284C591.401 241.949 570.208 280.058 581.575 301.57C598.74 334.09 662.617 326.87 693.705 327.158C745.677 327.616 825.536 338.346 863.257 378.564C894.106 411.452 885.554 456.433 847.176 482.29C781.092 526.814 655.616 499.763 581.267 488.943C488.162 475.388 385.451 452.634 313.996 389.235" transform="translate(4101.51 6640.342)" id="path120" fill="#CEEAEF" stroke="none" />
          <path d="M313.996 389.242C254.346 336.32 213.88 265.338 160.246 208.309C122.167 167.822 29.3008 153.844 5.9699 109.112C-17.3212 64.4366 32.503 26.0358 69.9361 14.4976C113.177 1.17326 200.852 -9.60715 242.959 13.526C286.707 37.5542 275.111 76.8092 293.519 117.871C330.087 199.394 378.32 180.961 459.73 174.123C503.706 170.433 564.48 175.638 582.192 219.284C591.401 241.951 570.208 280.061 581.575 301.571C598.74 334.098 662.617 326.873 693.705 327.156C745.677 327.611 825.536 338.352 863.257 378.56C894.106 411.452 885.554 456.43 847.176 482.295C781.092 526.822 655.616 499.764 581.267 488.945C488.162 475.388 385.451 452.635 313.996 389.242" transform="translate(4101.51 1667.845)" id="path122" fill="#CEEAEF" stroke="none" />
          <path d="M297.64 365.557C292.26 310.313 304.81 298.538 269.237 255.874C222.546 199.893 125.413 175.498 59.0104 147.722C-88.4836 86.0131 74.5941 27.5464 177.584 6.32391C274.409 -13.6159 280.913 13.8026 312.597 85.6851C384.967 99.3594 580.545 -27.0117 533.734 147.672C523.789 184.767 470.215 223.553 474.651 263.72C483.323 342.395 558.626 308.712 610.539 318.587C653.879 326.831 709.601 351.097 727.214 386.73C733.489 399.44 721.585 421.14 727.104 434.386C735.488 454.476 750.535 458.563 761.146 476.812C775.228 501.008 828.633 545.005 780.24 576.123C747.402 597.256 707.035 559.167 698.632 531.012C650.617 530.525 680.363 603.949 678.344 637.762C675.818 680.137 586.552 593.387 582.952 590.572C546.782 562.14 506.604 545.929 464.885 527.611C386.897 493.4 307.078 462.292 297.64 365.557" transform="translate(5165.682 5744.883)" id="path124" fill="#B844A7" stroke="none" />
          <path d="M205.316 38.124C135.074 75.2285 22.9245 164.604 5.78927 246.589C-11.3756 328.734 46.4642 406.394 47.23 486.083C48.0953 575.378 -56.3868 664.265 42.7348 738.862C66.6227 756.833 150.787 795.638 180.921 772.596C199.21 758.603 196.653 712.25 197.907 686.124C201.139 619.871 177.987 585.333 165.476 526.677C148.61 447.596 192.666 436.477 234.872 497.459C255.886 527.811 247.115 548.188 304.835 550.356C346.196 551.918 379.353 535.558 392.073 497.887C417.482 422.684 330.185 388.573 323.254 322.111C312.672 220.514 396.419 269.612 462.344 258.106C523.665 247.415 549.293 175.851 555.758 117.564C561.218 68.297 563.664 39.0192 520.682 24.0521C423.638 -9.75067 297.257 -10.4269 205.316 38.124" transform="translate(6645.884 5868.808)" id="path126" fill="#B844A7" stroke="none" />
          <path d="M205.311 38.124C135.074 75.2285 22.9217 164.604 5.78945 246.589C-11.3806 328.734 46.4635 406.394 47.2282 486.083C48.0944 575.378 -56.3856 664.265 42.7341 738.862C66.6249 756.833 150.788 795.638 180.915 772.596C199.212 758.603 196.648 712.25 197.911 686.124C201.135 619.871 177.982 585.333 165.473 526.677C148.605 447.596 192.666 436.477 234.874 497.459C255.883 527.811 247.111 548.188 304.839 550.356C346.192 551.918 379.348 535.558 392.071 497.887C417.477 422.684 330.187 388.573 323.252 322.111C312.667 220.514 396.422 269.612 462.346 258.106C523.667 247.415 549.287 175.851 555.755 117.564C561.213 68.297 563.661 39.0192 520.676 24.0521C423.635 -9.75067 297.252 -10.4269 205.311 38.124" transform="translate(1673.382 5868.808)" id="path128" fill="#B844A7" stroke="none" />
          <path d="M253.555 324.761C205.391 280.615 172.712 221.383 129.402 173.806C98.6614 140.013 23.6563 128.357 4.82051 91.0438C-13.9856 53.7501 26.2421 21.727 56.4748 12.1006C91.3915 0.981874 162.19 -8.01815 196.202 11.2852C231.527 31.3345 222.159 64.083 237.026 98.3438C266.553 166.367 305.507 150.983 371.234 145.274C406.748 142.201 455.836 146.547 470.137 182.956C477.576 201.871 460.461 233.666 469.63 251.616C483.504 278.746 535.078 272.729 560.189 272.958C602.147 273.346 666.631 282.296 697.102 315.851C722.005 343.299 715.103 380.831 684.124 402.402C630.739 439.546 529.42 416.981 469.382 407.951C394.208 396.644 311.266 377.659 253.555 324.761" transform="translate(6146.275 6276.281)" id="path130" fill="#D194CA" stroke="none" />
          <path d="M502.197 300.458C480.706 244.259 423.565 199.298 364.656 202.927C275.741 208.417 20.4546 386.095 0.673035 192.266C-12.6592 61.6586 175.701 149.214 244.562 105.516C279.681 83.2295 278.558 34.3496 321.927 13.8033C370.335 -9.13989 455.286 0.238428 503.768 15.0863C516.388 38.5267 540.047 57.9095 556.685 79.8383C574.397 103.169 582.065 138.156 605.107 160.761C658.999 213.638 734.989 231.669 794.54 275.954C859.54 324.277 866.76 382.664 865.308 463.596C864.413 513.988 850.56 596.999 775.047 562.569C725.173 539.835 740.27 439.351 669.322 445.964C588.012 453.542 616.773 566.219 580.583 610.564C546.432 652.412 490.849 658.031 469.677 604.637C429.186 502.452 539.361 397.651 502.197 300.458" transform="translate(2512.434 4925.625)" id="path132" fill="#CEEAEF" stroke="none" />
          <path d="M308.12 184.336C294.933 149.847 259.877 122.27 223.727 124.507C169.178 127.869 12.5444 236.875 0.411543 117.963C-7.75327 37.827 107.798 91.5396 150.054 64.738C171.595 51.0637 170.909 21.0699 197.522 8.45951C227.217 -5.60253 279.339 0.145435 309.085 9.25516C316.822 23.6355 331.332 35.5197 341.545 48.9852C352.405 63.2859 357.119 84.7571 371.251 98.6302C404.328 131.071 450.94 142.129 487.478 169.299C527.358 198.945 531.783 234.767 530.888 284.422C530.351 315.341 521.838 366.269 475.514 345.146C444.924 331.203 454.192 269.554 410.643 273.612C360.759 278.256 378.412 347.393 356.204 374.593C335.26 400.271 301.159 403.712 288.171 370.963C263.328 308.26 330.924 243.966 308.12 184.336" transform="translate(4638.837 4000.741)" id="path134" fill="#CEEAEF" stroke="none" />
          <path d="M243.436 582.565C186.471 598.855 116.091 629.744 62.4477 594.151C4.18023 555.485 -33.3024 413.121 42.528 384.539C112.849 358.036 200.921 384.529 275.161 357.707C290.386 283.289 211.493 251.475 172.509 207.408C145.25 176.598 85.2317 63.0061 114.032 20.4213C141.978 -20.9203 264.539 9.82 300.848 31.2414C345.79 57.7548 372.134 108.147 415.574 135.863C457.969 162.904 489.713 145.331 536.753 155.037C589.66 165.947 639.057 214.2 669.359 258.366C685.659 282.135 695.246 310.24 714.46 333.372C746.135 371.541 786.948 387.105 826.172 417.079C893.758 468.724 925.691 567.806 901.594 650.439C884.777 708.141 830.339 711.9 784.572 684.501C729.795 651.663 739.501 580.904 689.11 550.641C646.675 525.152 551.999 529.517 505.138 529.995C415.485 530.9 328.854 558.15 243.437 582.565" transform="translate(3672.086 5784.208)" id="path136" fill="#CEEAEF" stroke="none" />
          <path d="M243.437 582.565C186.472 598.855 116.091 629.744 62.4479 594.151C4.18024 555.485 -33.3025 413.121 42.528 384.539C112.849 358.036 200.922 384.529 275.161 357.708C290.387 283.289 211.493 251.475 172.509 207.408C145.25 176.598 85.2319 63.0061 114.032 20.4213C141.978 -20.9203 264.54 9.82 300.849 31.2414C345.79 57.7548 372.135 108.147 415.574 135.863C457.97 162.904 489.714 145.331 536.754 155.037C589.661 165.947 639.058 214.2 669.36 258.366C685.66 282.135 695.237 310.239 714.451 333.372C746.136 371.541 786.95 387.105 826.173 417.079C893.759 468.723 925.693 567.806 901.596 650.439C884.779 708.14 830.33 711.9 784.583 684.501C729.796 651.662 739.503 580.904 689.112 550.641C646.676 525.152 552 529.517 505.139 529.995C415.485 530.9 328.854 558.149 243.437 582.564" transform="translate(3503.019 5068.167)" id="path138" fill="#CEEAEF" stroke="none" />
          <path d="M179.165 505.631C160.806 451.342 217.403 412.556 228.939 368.102C247.785 295.533 198.349 251.158 143.661 208.445C110.863 182.836 2.1439 129.402 0.0455245 78.9608C-2.72917 12.4983 122.07 -0.917534 172.293 0.0471028C250.401 1.55876 313.203 45.0781 329.016 124.857C340.343 182.031 316.883 245.649 335.052 301.958C371.839 415.937 457.137 304.752 538.776 321.191C661.885 345.974 604.79 400.652 636.724 472.534C671.243 550.215 778.44 488.496 842.326 517.038C868.293 528.644 890.122 556.967 911.394 572.243C974.426 617.473 884.165 717.987 844.564 734.854C768.594 767.205 699.467 747.772 627.654 720.722C496.738 671.415 233.176 665.368 179.165 505.631" transform="translate(3687.078 4826.895)" id="path140" fill="#B844A7" stroke="none" />
          <path d="M41.6297 379.854C12.1229 309.804 -3.56039 226.974 0.686147 150.879C3.93818 92.7318 43.5988 30.4445 101.399 13.0408C145.296 -0.198911 219.516 -10.3109 259.445 18.8169C319.921 62.9476 283.303 146.257 261.912 198.79C226.816 284.961 363.679 315.981 412.121 361.46C519.209 461.989 388.73 705.174 242.748 647.856C141.607 608.127 80.3057 471.701 41.6297 379.854" transform="translate(5135.917 2256.321)" id="path142" fill="#D194CA" stroke="none" />
          <path d="M33.4128 305.045C9.72404 248.787 -2.86647 182.266 0.554549 121.165C3.16025 74.4742 34.9939 24.4516 81.4172 10.479C116.672 -0.161944 176.263 -8.2771 208.345 15.1033C256.906 50.5565 227.499 117.456 210.324 159.642C182.13 228.838 292.052 253.75 330.957 290.277C416.951 371 312.17 566.297 194.929 520.262C113.719 488.359 64.4812 378.807 33.4128 305.046" transform="translate(6234.549 4533.721)" id="path144" fill="#F78B0D" stroke="none" />
          <path d="M144.715 262.626C100.191 243.492 56.3832 212.374 24.7086 175.558C0.502349 147.423 -8.82594 101.279 10.0297 67.7342C24.3305 42.255 53.9468 4.80229 85.1742 0.525899C132.453 -5.92839 152.442 48.5105 165.858 82.0947C187.817 137.19 264.393 90.9257 306.749 90.4088C400.361 89.2553 447.918 258.599 355.539 296.807C291.533 323.271 203.082 287.708 144.715 262.626" transform="translate(4378.498 4380.03)" id="path146" fill="#B844A7" stroke="none" />
          <path d="M511.013 5.54713C585.763 -6.73988 626.005 1.35135 694.847 30.157C726.345 43.34 805.035 60.2267 818.627 97.56C842.057 161.904 733.302 201.784 691.254 220.162C627.307 248.087 558.822 223.086 532.596 301.472C524.71 325.032 525.207 349.387 510.732 372.191C483.493 415.103 429.487 443.387 383.923 461.576C348.272 475.808 273.129 504.429 238.399 474.137C134.878 383.827 369.059 324.873 402.476 273.378C449.322 201.187 319.68 216.522 282.615 222.38C231.154 230.515 180.672 228.436 129.144 217.974C97.34 211.52 21.9867 196.871 5.62822 163.157C-23.4688 103.219 68.0679 100.355 101.734 100.553C182.031 101.001 215.553 163.286 289.589 105.516C355.066 54.4187 428.446 19.117 511.013 5.54707" transform="translate(2067.342 2913.373)" id="path148" fill="#CEEAEF" stroke="none" />
          <path d="M76.8248 91.3765C116.645 -5.68681 166.449 1.77194 268.216 1.8812C332.122 1.95064 432.865 -11.1867 479.755 31.0101C506.965 55.4948 509.382 109.009 536.501 141.151C566.585 176.794 619.025 188.33 646.672 217.718C791.908 372.094 590.702 501.448 447.176 509.077C337.701 514.904 162.302 548.548 60.7536 499.559C-62.236 440.208 32.2612 199.996 76.8247 91.377" transform="translate(3566.998 6824.51)" id="path150" fill="#CEEAEF" stroke="none" />
          <path d="M76.8248 91.3737C116.645 -5.69457 166.449 1.77611 268.216 1.88053C332.122 1.95044 432.865 -11.1842 479.755 31.0046C506.965 55.4901 509.382 109.003 536.501 141.149C566.585 176.792 619.025 188.33 646.672 217.717C791.908 372.09 590.702 501.441 447.176 509.075C337.701 514.901 162.302 548.544 60.7536 499.557C-62.236 440.21 32.2612 200.003 76.8247 91.3737" transform="translate(3566.998 1852.013)" id="path152" fill="#CEEAEF" stroke="none" />
          <path d="M242.843 298.06C196.708 257.543 165.411 203.176 123.931 159.511C94.4832 128.51 22.6604 117.809 4.62009 83.5525C-13.4003 49.34 25.1367 19.9448 54.0866 11.1147C87.5316 0.897297 155.337 -7.35797 187.907 10.3569C221.73 28.763 212.77 58.8185 227.011 90.2653C255.285 152.694 292.588 138.573 355.55 133.328C389.552 130.511 436.562 134.505 450.267 167.921C457.397 185.279 440.998 214.46 449.779 230.932C463.066 255.833 512.463 250.297 536.51 250.511C576.698 250.873 638.466 259.096 667.635 289.883C691.493 315.075 684.89 349.513 655.204 369.314C604.087 403.414 507.053 382.697 449.551 374.403C377.549 364.023 298.108 346.599 242.843 298.06" transform="translate(3972.711 2134.97)" id="path154" fill="#91CA5B" stroke="none" />
          <path d="M801.239 711.838C724.056 739.603 618.649 742.264 558.422 677.628C506.3 621.719 519.816 546.937 514.475 477.633C506.877 379.134 437.541 376.345 344.793 373.094C270.852 370.49 -42.0869 361.205 4.75398 211.952C36.4885 110.813 154.367 169.609 212.575 187.051C343.709 226.385 319.384 118.536 342.327 45.1595C355.912 1.70874 433.702 -16.0252 476.813 17.3841C516.076 47.782 468.151 109.558 493.779 147.544C524.46 193.034 629.449 148.32 677.195 188.314C729.675 232.282 693.863 309.954 734.926 347.92C799.061 407.241 905.363 300.778 956.858 389.467C970.742 413.371 959.563 441.904 977.852 463.771C993.884 482.947 1015.51 471.825 1024.17 498.106C1036.79 536.456 991.378 558.502 970.056 580.839C918.053 635.323 875.24 685.215 801.239 711.838" transform="translate(3095.496 2135.035)" id="path156" fill="#B844A7" stroke="none" />
          <path d="M503.564 344.116C392.767 319.922 270.494 325.139 162.372 292.021C102.811 273.77 -11.039 201.291 0.86533 124.38C14.6888 35.1513 180.004 53.9225 243.095 79.8532C317.165 110.298 379.521 98.1113 371.952 2.60408C424.71 -0.289902 480.671 -9.82722 502.291 41.6583C517.557 77.9885 492.286 135.083 516.095 165.578C550.027 209.022 670.59 171.211 716.725 180.19C753.79 187.384 782.273 213.677 806.23 238.488C850.982 284.784 851.977 363.474 838.263 430.182C822.022 509.215 731.354 514.626 685.329 464.761C626.186 400.685 596.033 364.297 503.564 344.116" transform="translate(6330.727 2546.643)" id="path158" fill="#91CA5B" stroke="none" />
          <path d="M265.691 212.157C226.328 195.499 192.376 183.883 157.002 158.991C100.952 119.579 27.0106 72.539 0 9.80599C38.507 -10.0641 122.075 2.5064 155.391 27.4584C184.251 49.0688 186.747 67.9444 227.432 73.5833C248.545 76.517 270.922 66.8405 292.463 77.979C317.882 91.1362 335.256 132.1 358.587 150.985C392.131 178.125 441.538 192.884 480.005 211.759C523.624 233.151 649.886 283.552 613.348 355.126C548.427 348.94 491.86 355.922 434.845 320.627C379.203 286.198 326.206 237.755 265.691 212.157" transform="translate(3046.956 3461.082)" id="path160" fill="#B844A7" stroke="none" />
          <path d="M186.771 401.323C147.997 338.183 187.544 295.082 172.02 234.322C158.074 179.721 -26.0992 81.9812 3.14111 21.1848C11.1637 4.51207 67.2795 -1.26892 82.387 0.226833C127.221 4.69411 116.453 19.6314 146.661 48.1068C160.25 60.9179 207.845 100.648 225.526 104.952C254.778 112.069 275.461 87.9254 305.587 96.8986C312.867 120.964 322.991 141.632 322.042 167.784C349.174 174.582 365.16 156.161 390.858 149.615C438.963 137.37 501.205 140.952 547.612 154.451C597.271 168.883 723.382 284.271 661.568 341.753C574.906 422.347 457.174 193.59 360.766 246.928C207.496 331.709 495.222 401.89 539.66 419.065C573.504 432.153 667.515 496.666 612.899 541.239C575.617 571.67 510.862 509.733 478.358 497.402C466.277 492.817 453.884 483.24 442.113 477.72C424.694 469.556 426.092 637.247 358.641 624.896C291.764 612.653 315.963 547.614 298.656 507.436C279.174 462.196 214.454 446.414 186.771 401.323" transform="translate(2284.66 2668.611)" id="path162" fill="#B844A7" stroke="none" />
          <path d="M286.88 434.589C296 464.304 316.675 482.076 348.609 466.363C397.508 442.296 357.957 377.882 396.922 348.544C450.844 307.929 539.186 378.688 573.158 297.735C602.366 228.15 521.841 241.297 473.827 225.485C403.625 202.373 428.159 157.521 400.174 102.246C355.988 14.9586 189.071 16.3011 101.276 5.1727C58.9103 -0.197638 -23.534 -15.4035 6.40053 54.9674C31.8299 114.767 103.086 93.385 153.219 99.0039C227.389 107.318 298.963 143.07 267.766 217.976C243.55 276.095 285.07 265.583 330.946 252.724C348.082 314.164 265.468 364.785 286.88 434.589" transform="translate(3731.084 3149.388)" id="path164" fill="#B844A7" stroke="none" />
          <path d="M146.268 26.5597C175.009 47.6132 190.672 76.1453 230.989 82.9082C297.999 94.1561 361.369 57.7675 404.629 138.113C425.792 177.415 425.822 232.799 385.774 256.1C307.934 301.4 271.028 178.937 203.114 176.52C199.872 316.656 70.477 172.592 40.1051 133.996C10.3398 96.1252 -26.0292 48.5183 27.0375 12.2191C62.3722 -11.9573 114.673 3.40791 146.268 26.5597" transform="translate(4648.869 6098.811)" id="path166" fill="#B844A7" stroke="none" />
        </g>
      </g>
    </g>
  </g>
</svg>