<?xml version="1.0" encoding="utf-8"?>
<svg width="552px" height="259px" viewBox="0 0 552 259" version="1.1" xmlns:xlink="http://www.w3.org/1999/xlink" xmlns="http://www.w3.org/2000/svg">
  <desc>Created with Lunacy</desc>
  <g id="Group-15" transform="matrix(-4.371139E-08 -1 1 -4.371139E-08 2 257)" opacity="0.072149366">
    <path d="M0 0L0 70L70 0L0 0Z" transform="translate(2 2)" id="Path-6-Copy-7" fill="none" fill-rule="evenodd" stroke="#EEEEEE" stroke-width="4" />
    <path d="M0 44.2141L53.1468 65L80 0L42.6775 0L0 44.2141Z" transform="translate(31.5 0.5)" id="Path-7-Copy-3" fill="none" fill-rule="evenodd" stroke="#EEEEEE" stroke-width="4" />
    <path d="M0 26L81 19.824L26.9857 0L0 26Z" transform="translate(4.5 48.5)" id="Path-8-Copy-7" fill="none" fill-rule="evenodd" stroke="#EEEEEE" stroke-width="3" />
    <path d="M0 4.16501L0 25L72 25L47.7038 0L0 4.16501Z" transform="translate(2.5 71.5)" id="Path-9-Copy-7" fill="none" fill-rule="evenodd" stroke="#EEEEEE" stroke-width="3" />
    <path d="M59 0L58.5949 131L0 69.1664L31.882 66.3565L59 0Z" transform="translate(54 2)" id="Path-10-Copy-7" fill="none" fill-rule="evenodd" stroke="#EEEEEE" stroke-width="3" />
    <path d="M0 0L17.7085 0L55 36.0037L27.5 64.992L0 65L0 0Z" transform="translate(112 2)" id="Path-11-Copy-7" fill="none" fill-rule="evenodd" stroke="#EEEEEE" stroke-width="4" />
    <path d="M0 0L78 0L34.5585 35L0 0Z" transform="translate(131.5 2.5)" id="Path-13-Copy-3" fill="none" fill-rule="evenodd" stroke="#EEEEEE" stroke-width="3" />
    <path d="M0 0L27 0L19.387 25L0 0Z" transform="translate(210 1)" id="Path-14-Copy-3" fill="none" fill-rule="evenodd" stroke="#EEEEEE" stroke-width="3" />
    <path d="M12.44 0L25 0L0 39L12.44 0Z" transform="translate(228 0)" id="Path-25-Copy-3" fill="none" fill-rule="evenodd" stroke="#EEEEEE" stroke-width="3" />
    <path d="M58.0152 38L0 34.7176L41.8432 0L62 25.1866L58.0152 38Z" transform="translate(168 4)" id="Path-26-Copy-3" fill="none" fill-rule="evenodd" stroke="#EEEEEE" stroke-width="3" />
    <path d="M0 39.5537L25 67L24.9153 0L0 39.5537Z" transform="translate(228 2)" id="Path-27-Copy-3" fill="none" fill-rule="evenodd" stroke="#EEEEEE" stroke-width="3" />
    <path d="M20.995 0L0 52.6302L19.6356 90.1336L18.0391 127.468L46 131L46 28.8584L20.995 0Z" transform="translate(206.5 42.5)" id="Path-28-Copy-3" fill="none" fill-rule="evenodd" stroke="#EEEEEE" stroke-width="4" />
    <path d="M38.2006 0L60.9325 26.8653L30.3513 26.251L0 56L74.2612 56L97 2.84398L38.2006 0Z" transform="translate(130.5 39.5)" id="Path-29-Copy-3" fill="none" fill-rule="evenodd" stroke="#EEEEEE" stroke-width="4" />
    <path d="M54.2989 92L0 92L0.202781 28.4309L26.9052 28.4309L52.9992 0L73 24.3357L45.3047 23.9308L14.5128 54.3451L54.2989 92Z" transform="translate(114.5 41.5)" id="Path-30-Copy-3" fill="none" fill-rule="evenodd" stroke="#EEEEEE" stroke-width="3" />
    <path d="M0 0L72 0L37.7038 36L0 0Z" transform="translate(131 96.99991)" id="Path-31-Copy-3" fill="none" fill-rule="evenodd" stroke="#EEEEEE" stroke-width="3" />
    <path d="M-2.38524e-17 36L34.966 0L55 35.4872L-2.38524e-17 36Z" transform="translate(168.5 97.49991)" id="Path-32-Copy-3" fill="none" fill-rule="evenodd" stroke="#EEEEEE" stroke-width="3" />
    <path d="M94 0L36.106 60L0 0L94 0Z" transform="translate(74 134.99991)" id="Path-33-Copy-3" fill="none" fill-rule="evenodd" stroke="#EEEEEE" stroke-width="3" />
    <path d="M0 0L0 72L35.6645 35.3566L107 36L72.4783 0L0 0Z" transform="translate(2.5 97.49991)" id="Path-34-Copy-3" fill="none" fill-rule="evenodd" stroke="#EEEEEE" stroke-width="3" />
    <path d="M33.4622 0L0 6.07153e-17L71 70L71 62.5885L33.4622 0Z" transform="translate(37.5 134.49991)" id="Path-35-Copy-3" fill="none" fill-rule="evenodd" stroke="#EEEEEE" stroke-width="3" />
    <path d="M0 36.0078L71.3289 110L107 71.0638L35.3422 0L0 36.0078Z" transform="translate(2.5 136.49991)" id="Path-36-Copy-3" fill="none" fill-rule="evenodd" stroke="#EEEEEE" stroke-width="4" />
    <path d="M0 3.1225e-17L0 72L35 37.1208L0 3.1225e-17Z" transform="translate(1.5 173.49991)" id="Path-37-Copy-3" fill="none" fill-rule="evenodd" stroke="#EEEEEE" stroke-width="4" />
    <path d="M0 35L35.5451 0L70 35L0 35Z" transform="translate(3.5 212.49991)" id="Path-38-Copy-3" fill="none" fill-rule="evenodd" stroke="#EEEEEE" stroke-width="3" />
    <path d="M0 40.9584L39 80L39 0L0 40.9584Z" transform="translate(74.5 206.49991)" id="Path-39-Copy-3" fill="none" fill-rule="evenodd" stroke="#EEEEEE" stroke-width="3" />
    <path d="M0 0L47.5591 0L19.6284 27.2752L16.2565 40L55 80L0 80L0 0Z" transform="translate(115.5 206.49991)" id="Path-40-Copy-3" fill="none" fill-rule="evenodd" stroke="#EEEEEE" stroke-width="4" />
    <path d="M3.62722 70L51.7937 70L110.591 12.8991L111 0L59.0197 0.408765L0 61.6084L0 70L3.62722 70Z" transform="translate(110.5 134.49991)" id="Path-42-Copy-3" fill="none" fill-rule="evenodd" stroke="#EEEEEE" stroke-width="4" />
    <path d="M84.0405 0L0 82.6108L97 96L84.0405 19.0868L84.0405 0Z" transform="translate(135.5 151.49991)" id="Path-43-Copy-3" fill="none" fill-rule="evenodd" stroke="#EEEEEE" stroke-width="3" />
    <path d="M12.1445 76L29 56.8354L29 4.72531L0 0L12.1445 76Z" transform="translate(221.5 170.49985)" id="Path-44-Copy-3" fill="none" fill-rule="evenodd" stroke="#EEEEEE" stroke-width="3" />
    <path d="M81 0L81 70L0 55.3855L63.8203 18.7234L81 0Z" transform="translate(169.5 231.49991)" id="Path-45-Copy-3" fill="none" fill-rule="evenodd" stroke="#EEEEEE" stroke-width="3" />
    <path d="M2.72086 0L0 10.2112L35.1415 46L98 12.5182L2.72086 0Z" transform="translate(134 235.99991)" id="Path-46-Copy-3" fill="none" fill-rule="evenodd" stroke="#EEEEEE" stroke-width="3" />
    <path d="M81 14.7618L81 19.1884L-1.79856e-14 80L0 0L81 14.7618Z" transform="translate(172.5 288.4999)" id="Path-47-Copy-3" fill="none" fill-rule="evenodd" stroke="#EEEEEE" stroke-width="4" />
    <path d="M81 0L81 9.25287L53.0736 79L0 61.3857L81 0Z" transform="translate(172 309.9999)" id="Path-48-Copy-3" fill="none" fill-rule="evenodd" stroke="#EEEEEE" stroke-width="3" />
    <path d="M26 0L26 74L0 64.9588L26 0Z" transform="translate(225 323.9999)" id="Path-49-Copy-3" fill="none" fill-rule="evenodd" stroke="#EEEEEE" stroke-width="3" />
    <path d="M41 0L41 25L-3.55618e-17 25L41 0Z" transform="translate(213 401)" id="Path-50-Copy-3" fill="none" fill-rule="evenodd" stroke="#EEEEEE" stroke-width="3" />
    <path d="M121 27.5779L0 101L34.9071 0L121 27.5779Z" transform="translate(134 373)" id="Path-51-Copy-3" fill="none" fill-rule="evenodd" stroke="#EEEEEE" stroke-width="3" />
    <path d="M93 0L93 23.9685L0 29L50.3086 0L93 0Z" transform="translate(159 429)" id="Path-52-Copy-3" fill="none" fill-rule="evenodd" stroke="#EEEEEE" stroke-width="3" />
    <path d="M0 0L71.3289 0L107 36L34.0446 36L0 0Z" transform="translate(4.5 249.49991)" id="Path-54-Copy-3" fill="none" fill-rule="evenodd" stroke="#EEEEEE" stroke-width="3" />
    <path d="M0 0L0 34L29 34L0 0Z" transform="translate(3.5 250.49991)" id="Path-55-Copy-3" fill="none" fill-rule="evenodd" stroke="#EEEEEE" stroke-width="3" />
    <path d="M0 0L0 28L29 0L0 0Z" transform="translate(4.5 287.4999)" id="Path-56-Copy-3" fill="none" fill-rule="evenodd" stroke="#EEEEEE" stroke-width="3" />
    <path d="M0 31.7463L0 71L35 71L33.5211 -4.37571e-31L0 31.7463Z" transform="translate(2 288.9999)" id="Path-57-Copy-3" fill="none" fill-rule="evenodd" stroke="#EEEEEE" stroke-width="3" />
    <path d="M0 41.2306L0 78L73.4831 78L100 26.4749L75.7642 0L36.2688 41.2306L0 41.2306Z" transform="translate(0 320.9999)" id="Path-58-Copy-3" fill="none" fill-rule="evenodd" stroke="#EEEEEE" stroke-width="3" />
    <path d="M0 0L46.2748 0L73 39.4669L64.051 57.4624L38.7669 29.6267L1.69422 70L0 0Z" transform="translate(37.5 289.4999)" id="Path-59-Copy-3" fill="none" fill-rule="evenodd" stroke="#EEEEEE" stroke-width="3" />
    <path d="M0 0L78.285 0L80 71L43.1925 37.8251L25.5977 37.8251L0 0Z" transform="translate(90.5 288.4999)" id="Path-60-Copy-3" fill="none" fill-rule="evenodd" stroke="#EEEEEE" stroke-width="3" />
    <path d="M35.4659 0L52.1077 0L90 33.1923L90 40.1972L63.8102 67.6756L0 70L35.4659 0Z" transform="translate(78 327.9999)" id="Path-61-Copy-3" fill="none" fill-rule="evenodd" stroke="#EEEEEE" stroke-width="3" />
    <path d="M0 0L0 91L47 45.5L0 0Z" transform="translate(3 399.9999)" id="Path-62-Copy-3" fill="none" fill-rule="evenodd" stroke="#EEEEEE" stroke-width="3" />
    <path d="M46.6165 44L70 0L-7.77156e-15 0L46.6165 44Z" transform="translate(6 399.9999)" id="Path-63-Copy-3" fill="none" fill-rule="evenodd" stroke="#EEEEEE" stroke-width="3" />
    <path d="M25.085 0L55 39.525L27.6957 69L0 47.9527L25.085 0Z" transform="translate(52 397.9999)" id="Path-64-Copy-3" fill="none" fill-rule="evenodd" stroke="#EEEEEE" stroke-width="3" />
    <path d="M0 24.6489L61.1765 22.6213L82 -2.73657e-15L55.786 81L43.7751 79.7251L32.1642 56.0117L27.3067 61.9771L0 24.6489Z" transform="translate(80.5 376.4999)" id="Path-65-Copy-3" fill="none" fill-rule="evenodd" stroke="#EEEEEE" stroke-width="3" />
    <path d="M11 1.35849L6.60767 17L1.22125e-15 2.55723e-16L11 1.35849Z" transform="translate(127 456)" id="Path-66-Copy-3" fill="none" fill-rule="evenodd" stroke="#EEEEEE" stroke-width="3" />
    <path d="M36.1487 0L0 38.7721L80 90L36.1487 0Z" transform="translate(78 434.9999)" id="Path-67-Copy-3" fill="none" fill-rule="evenodd" stroke="#EEEEEE" stroke-width="3" />
    <path d="M1.51047 9.41134L0 60L36 24.9893L12.2834 0L1.51047 9.41134Z" transform="translate(2 482.9999)" id="Path-68-Copy-3" fill="none" fill-rule="evenodd" stroke="#EEEEEE" stroke-width="3" />
    <path d="M0 35L70 35L36.2341 0L0 35Z" transform="translate(3.5 512.5)" id="Path-69-Copy-3" fill="none" fill-rule="evenodd" stroke="#EEEEEE" stroke-width="3" />
    <path d="M65 20.8484L25.1259 60L0 34.3853L36.5127 0L65 20.8484Z" transform="translate(16.5 448.4999)" id="Path-70-Copy-3" fill="none" fill-rule="evenodd" stroke="#EEEEEE" stroke-width="3" />
    <path d="M33.4946 70L35 0L0 34.3276L33.4946 70Z" transform="translate(40.5 474.4999)" id="Path-71-Copy-3" fill="none" fill-rule="evenodd" stroke="#EEEEEE" stroke-width="3" />
    <path d="M0 70L0.982588 0L35 22.9443L35 35.1167L0 70Z" transform="translate(76.5 474.4999)" id="Path-72-Copy-3" fill="none" fill-rule="evenodd" stroke="#EEEEEE" stroke-width="3" />
    <path d="M34 0L34 30L0 30L34 0Z" transform="translate(78 514)" id="Path-73-Copy-3" fill="none" fill-rule="evenodd" stroke="#EEEEEE" stroke-width="3" />
    <path d="M1.26486e-17 0L1.26486e-17 44L29.1658 44L44 27.2244L1.26486e-17 0Z" transform="translate(113 500.9999)" id="Path-74-Copy-3" fill="none" fill-rule="evenodd" stroke="#EEEEEE" stroke-width="3" />
    <path d="M0 18L14.5114 0L73 18L0 18Z" transform="translate(145.5 528.5)" id="Path-75-Copy-3" fill="none" fill-rule="evenodd" stroke="#EEEEEE" stroke-width="3" />
    <path d="M0 18.1104L25.0482 70L86 -3.88578e-15L23.6219 3.0438L0 18.1104Z" transform="translate(134 457)" id="Path-76-Copy-3" fill="none" fill-rule="evenodd" stroke="#EEEEEE" stroke-width="3" />
    <path d="M61.176 2.25441L91 0L22.4018 80L0 73.2816L61.176 2.25441Z" transform="translate(162.5 455.5)" id="Path-77-Copy-3" fill="none" fill-rule="evenodd" stroke="#EEEEEE" stroke-width="3" />
    <path d="M0 44L30 44L30 0L0 44Z" transform="translate(219 498)" id="Path-78-Copy-3" fill="none" fill-rule="evenodd" stroke="#EEEEEE" stroke-width="3" />
    <path d="M68 39.5477L68 0L0 76.048L34 86L68 39.5477Z" transform="translate(185 457)" id="Path-79-Copy-3" fill="none" fill-rule="evenodd" stroke="#EEEEEE" stroke-width="3" />
  </g>
</svg>