<?xml version="1.0" encoding="UTF-8" standalone="no"?>
<svg
   xmlns:dc="http://purl.org/dc/elements/1.1/"
   xmlns:cc="http://creativecommons.org/ns#"
   xmlns:rdf="http://www.w3.org/1999/02/22-rdf-syntax-ns#"
   xmlns:svg="http://www.w3.org/2000/svg"
   xmlns="http://www.w3.org/2000/svg"
   xmlns:sodipodi="http://sodipodi.sourceforge.net/DTD/sodipodi-0.dtd"
   xmlns:inkscape="http://www.inkscape.org/namespaces/inkscape"
   width="35px"
   height="35px"
   viewBox="0 0 35 35"
   version="1.1"
   id="svg6"
   sodipodi:docname="telegram-white-stroke.svg"
   inkscape:version="1.0 (4035a4fb49, 2020-05-01)">
  <metadata
     id="metadata12">
    <rdf:RDF>
      <cc:Work
         rdf:about="">
        <dc:format>image/svg+xml</dc:format>
        <dc:type
           rdf:resource="http://purl.org/dc/dcmitype/StillImage" />
        <dc:title />
      </cc:Work>
    </rdf:RDF>
  </metadata>
  <defs
     id="defs10" />
  <sodipodi:namedview
     inkscape:document-rotation="0"
     pagecolor="#ffffff"
     bordercolor="#666666"
     borderopacity="1"
     objecttolerance="10"
     gridtolerance="10"
     guidetolerance="10"
     inkscape:pageopacity="0"
     inkscape:pageshadow="2"
     inkscape:window-width="1580"
     inkscape:window-height="830"
     id="namedview8"
     showgrid="false"
     inkscape:zoom="6.0714286"
     inkscape:cx="-11.672413"
     inkscape:cy="3.7780093"
     inkscape:window-x="964"
     inkscape:window-y="119"
     inkscape:window-maximized="0"
     inkscape:current-layer="svg6" />
  <desc
     id="desc2">Created with Lunacy</desc>
  <path
     d="m 12.188972,26.020956 v 6.753463 c 0,0.471781 0.293294,0.889682 0.727595,1.038206 0.108575,0.03641 0.21997,0.05388 0.329951,0.05388 0.329963,0 0.648633,-0.160178 0.851686,-0.445573 l 3.825511,-5.375981 -5.734743,-2.023996 z"
     id="Path"
     fill="#ffffff"
     stroke="none"
     style="stroke:#000000;stroke-width:1.96993;stroke-miterlimit:4;stroke-dasharray:none;stroke-opacity:1" />
  <path
     d="M 33.51162,1.4257011 C 33.197961,1.2021529 32.786014,1.1719807 32.445141,1.3516421 L 1.759648,17.46632 c -0.36277,0.19068 -0.5768865,0.58009 -0.5468829,0.990188 0.031366,0.411407 0.3027628,0.762532 0.6887176,0.895549 L 10.432038,22.284239 28.599218,6.6633117 14.54114,23.695476 l 14.296735,4.91396 c 0.10633,0.03567 0.218177,0.05485 0.330026,0.05485 0.185445,0 0.369582,-0.05074 0.531929,-0.149491 0.259045,-0.159041 0.435045,-0.426479 0.480027,-0.726867 L 33.9303,2.4158976 C 33.986223,2.031888 33.825279,1.650621 33.51162,1.4257011 Z"
     id="Path#1"
     fill="#ffffff"
     stroke="none"
     style="stroke:#000000;stroke-width:1.87126;stroke-miterlimit:4;stroke-dasharray:none;stroke-opacity:1" />
</svg>
