<?xml version="1.0" encoding="UTF-8" standalone="no"?>
<svg
   xmlns:dc="http://purl.org/dc/elements/1.1/"
   xmlns:cc="http://creativecommons.org/ns#"
   xmlns:rdf="http://www.w3.org/1999/02/22-rdf-syntax-ns#"
   xmlns:svg="http://www.w3.org/2000/svg"
   xmlns="http://www.w3.org/2000/svg"
   xmlns:sodipodi="http://sodipodi.sourceforge.net/DTD/sodipodi-0.dtd"
   xmlns:inkscape="http://www.inkscape.org/namespaces/inkscape"
   inkscape:version="1.0 (4035a4fb49, 2020-05-01)"
   sodipodi:docname="telegram-white-stroke.svg"
   id="svg6"
   version="1.1"
   viewBox="0 0 35 35"
   height="35px"
   width="35px">
  <metadata
     id="metadata12">
    <rdf:RDF>
      <cc:Work
         rdf:about="">
        <dc:format>image/svg+xml</dc:format>
        <dc:type
           rdf:resource="http://purl.org/dc/dcmitype/StillImage" />
        <dc:title></dc:title>
      </cc:Work>
    </rdf:RDF>
  </metadata>
  <defs
     id="defs10" />
  <sodipodi:namedview
     inkscape:current-layer="svg6"
     inkscape:window-maximized="0"
     inkscape:window-y="119"
     inkscape:window-x="1120"
     inkscape:cy="3.7780093"
     inkscape:cx="-11.672413"
     inkscape:zoom="6.0714286"
     showgrid="false"
     id="namedview8"
     inkscape:window-height="830"
     inkscape:window-width="1580"
     inkscape:pageshadow="2"
     inkscape:pageopacity="0"
     guidetolerance="10"
     gridtolerance="10"
     objecttolerance="10"
     borderopacity="1"
     bordercolor="#666666"
     pagecolor="#ffffff" />
  <desc
     id="desc2">Created with Lunacy</desc>
  <path
     style="stroke-width:2;stroke-miterlimit:4;stroke-dasharray:none;stroke:#000000;stroke-opacity:1"
     stroke="none"
     fill="#FFFFFF"
     id="Path"
     transform="translate(12.20929 26.04651)"
     d="M0 0L0 7.00653C0 7.49599 0.291398 7.92955 0.722892 8.08364C0.830765 8.12141 0.94144 8.13954 1.05071 8.13954C1.37854 8.13954 1.69515 7.97336 1.89689 7.67727L5.69767 2.09984L0 0L0 0Z" />
  <path
     style="stroke-width:2;stroke-miterlimit:4;stroke-dasharray:none;stroke:#000000;stroke-opacity:1"
     stroke="none"
     fill="#FFFFFF"
     id="Path#1"
     d="M34.5406 0.20378C34.2052 -0.0350328 33.7647 -0.0672652 33.4002 0.124664L0.587771 17.3397C0.199856 17.5434 -0.0291017 17.9594 0.00298152 18.3975C0.0365231 18.837 0.32673 19.2121 0.739437 19.3542L9.86128 22.4866L29.2877 5.79903L14.2552 23.9942L29.5429 29.2437C29.6566 29.2818 29.7762 29.3023 29.8958 29.3023C30.0941 29.3023 30.291 29.2481 30.4646 29.1426C30.7416 28.9727 30.9298 28.687 30.9779 28.3661L34.9883 1.26159C35.0481 0.851359 34.876 0.444058 34.5406 0.20378L34.5406 0.20378Z" />
</svg>
