<?xml version="1.0" standalone="no"?>
<!DOCTYPE svg PUBLIC "-//W3C//DTD SVG 20010904//EN"
 "http://www.w3.org/TR/2001/REC-SVG-20010904/DTD/svg10.dtd">
<svg version="1.0" xmlns="http://www.w3.org/2000/svg"
 width="882.000000pt" height="882.000000pt" viewBox="0 0 882.000000 882.000000"
 preserveAspectRatio="xMidYMid meet">
<metadata>
Created by potrace 1.11, written by Peter Selinger 2001-2013
</metadata>
<g transform="translate(0.000000,882.000000) scale(0.100000,-0.100000)"
fill="#000000" stroke="none">
<path d="M4401 8582 c-6 -11 -47 -119 -91 -239 -45 -120 -84 -225 -87 -233 -3
-8 -7 -19 -8 -25 0 -5 -4 -17 -8 -25 -16 -39 -156 -504 -162 -540 -2 -14 -9
-41 -15 -60 -10 -32 -66 -247 -76 -291 -2 -11 -6 -29 -10 -41 -3 -13 -7 -34
-10 -47 -3 -12 -11 -51 -19 -85 -8 -33 -16 -72 -18 -86 -3 -14 -13 -61 -22
-105 -9 -44 -18 -91 -20 -105 -2 -14 -8 -50 -14 -80 -6 -30 -13 -68 -15 -85
-2 -16 -6 -41 -9 -55 -4 -14 -9 -45 -12 -70 -3 -25 -8 -58 -11 -75 -3 -16 -7
-50 -9 -75 -2 -25 -5 -45 -5 -45 -4 0 -22 -171 -34 -320 -24 -294 -24 -674 -2
-875 3 -25 8 -74 11 -110 3 -36 8 -76 10 -90 2 -14 6 -43 10 -65 3 -22 8 -58
11 -80 3 -22 9 -58 14 -80 5 -22 12 -56 15 -75 3 -19 15 -71 26 -115 11 -44
22 -89 24 -100 25 -140 159 -504 254 -695 49 -98 137 -251 163 -285 4 -5 35
-45 69 -88 l61 -79 16 24 c9 12 19 25 22 28 18 15 103 136 149 213 62 103 165
315 214 442 19 50 38 99 42 110 5 11 9 25 11 30 1 6 14 46 29 90 14 44 28 87
30 95 1 8 9 35 16 60 7 25 14 52 15 60 2 8 13 56 25 105 12 50 23 99 25 110 1
11 10 58 19 105 14 77 20 113 30 190 2 14 7 59 11 100 4 41 8 89 10 105 21
188 21 586 -1 860 -7 100 -15 181 -20 215 -2 19 -7 57 -10 85 -3 27 -7 61 -9
75 -9 60 -30 199 -45 300 -11 71 -62 324 -87 435 -9 39 -17 79 -18 90 -2 11
-6 27 -9 35 -3 8 -12 44 -20 80 -8 36 -32 128 -52 205 -20 77 -38 145 -39 150
-2 6 -10 37 -20 70 -41 146 -58 201 -65 220 -5 11 -18 54 -31 95 -31 106 -118
358 -150 435 -5 11 -26 67 -48 124 -35 91 -41 101 -51 83z m44 -782 c9 -36 26
-92 37 -125 11 -33 21 -68 23 -79 3 -10 12 -44 21 -75 17 -57 40 -144 69 -261
9 -36 20 -81 25 -100 15 -57 58 -248 80 -355 28 -136 32 -157 34 -180 1 -11 5
-33 9 -50 10 -46 17 -86 23 -130 3 -22 7 -47 9 -55 2 -8 7 -40 10 -70 3 -30 8
-66 10 -80 7 -34 15 -95 21 -150 2 -25 6 -67 9 -95 34 -309 38 -748 8 -1000
-3 -33 -7 -77 -7 -97 -1 -21 -3 -38 -6 -38 -3 0 -6 -8 -6 -17 -1 -28 -13 -118
-18 -144 -7 -27 -15 -70 -22 -114 -3 -16 -17 -79 -32 -140 -14 -60 -27 -113
-28 -117 -1 -5 -2 -10 -3 -13 0 -3 -2 -8 -2 -12 -1 -5 -10 -30 -19 -58 -9 -27
-17 -53 -18 -58 -2 -20 -56 -174 -66 -186 -6 -8 -10 -15 -8 -15 9 -3 -51 -143
-120 -284 -50 -101 -63 -121 -74 -111 -17 14 -134 253 -134 274 0 8 -4 15 -10
15 -5 0 -10 8 -10 18 0 10 -5 23 -12 30 -7 7 -9 12 -5 12 4 0 2 10 -5 23 -6
12 -13 27 -15 32 -1 6 -16 48 -33 95 -35 96 -57 173 -100 345 -26 109 -34 147
-45 212 -2 12 -6 34 -9 50 -10 48 -18 97 -21 128 -2 17 -6 55 -10 85 -13 108
-15 127 -22 240 -8 149 -8 421 1 585 7 124 9 158 21 270 3 28 8 70 10 95 5 48
10 87 25 185 5 33 12 83 16 110 3 28 8 59 10 70 3 11 7 36 10 55 3 19 7 42 9
50 2 8 6 29 9 45 13 77 19 110 48 245 17 80 32 152 33 160 2 8 4 15 5 15 1 0
3 10 6 23 2 12 6 32 8 45 3 12 6 24 7 27 1 3 3 10 4 15 3 16 15 61 52 200 19
72 36 135 37 140 2 6 8 30 15 55 8 25 14 50 15 55 6 24 28 101 33 115 8 19 8
21 35 112 26 88 33 85 63 -22z"/>
<path d="M990 6423 c0 -7 17 -64 37 -125 20 -62 36 -119 36 -125 0 -7 5 -13
10 -13 6 0 8 -3 4 -6 -3 -3 3 -26 13 -50 11 -24 17 -44 13 -44 -3 0 -1 -6 5
-12 6 -7 11 -17 12 -23 4 -18 12 -38 83 -220 38 -99 75 -189 80 -200 6 -11 12
-24 13 -30 1 -5 22 -54 48 -108 25 -55 46 -101 46 -104 0 -11 232 -466 285
-558 122 -213 147 -253 215 -356 33 -49 60 -94 60 -98 0 -5 3 -11 8 -13 4 -1
50 -61 102 -133 52 -71 99 -135 105 -141 5 -6 24 -28 40 -48 92 -114 187 -218
309 -335 119 -115 113 -109 186 -170 35 -29 69 -58 76 -64 21 -19 36 -30 76
-57 21 -14 38 -28 38 -32 0 -5 6 -8 14 -8 8 0 16 -3 18 -8 3 -7 85 -63 183
-124 107 -67 344 -187 387 -197 4 -1 31 -12 60 -25 48 -21 201 -73 238 -81 8
-2 34 -8 56 -14 46 -12 121 -23 173 -25 l33 -1 0 85 c-2 150 -16 262 -57 440
-2 8 -8 35 -14 60 -17 76 -89 287 -132 389 -54 126 -121 264 -132 272 -5 3 -8
9 -8 13 1 6 -22 53 -46 91 -7 11 -18 31 -25 45 -47 92 -243 361 -381 524 -116
136 -337 357 -485 484 -30 26 -60 52 -66 57 -12 11 -109 91 -140 115 -10 8
-33 27 -50 41 -17 14 -85 66 -151 115 -66 49 -121 92 -123 97 -2 4 -8 7 -14 7
-6 0 -27 13 -47 28 -20 16 -44 32 -53 35 -10 4 -18 11 -18 17 0 5 -4 10 -8 10
-5 0 -59 34 -121 75 -61 41 -113 75 -116 75 -5 0 -155 95 -172 110 -7 5 -15
10 -19 10 -3 0 -43 22 -88 49 -119 72 -179 105 -296 165 -260 133 -300 152
-300 139z m565 -563 c121 -71 339 -213 343 -222 2 -5 10 -8 18 -8 8 0 14 -4
14 -10 0 -5 4 -10 10 -10 7 0 132 -84 195 -132 6 -5 71 -54 145 -110 362 -273
668 -563 890 -843 39 -49 77 -98 85 -108 8 -9 15 -22 15 -27 0 -6 5 -10 10
-10 6 0 10 -5 10 -10 0 -6 6 -18 13 -26 23 -28 32 -40 44 -59 6 -11 34 -56 62
-100 79 -128 167 -303 230 -460 5 -11 13 -31 19 -45 6 -14 18 -47 27 -75 10
-27 20 -57 23 -65 3 -8 6 -18 7 -22 2 -5 3 -9 5 -10 1 -2 4 -16 6 -33 3 -16
10 -35 16 -42 6 -7 8 -13 5 -13 -3 0 -1 -15 4 -32 11 -37 49 -221 46 -224 -4
-4 -141 46 -217 78 -87 37 -273 132 -312 159 -14 11 -29 19 -32 19 -16 0 -310
207 -357 252 -8 7 -41 36 -74 63 -60 51 -236 225 -310 307 -48 53 -62 70 -140
168 -33 41 -62 77 -65 80 -7 7 -42 57 -130 188 -44 64 -83 122 -87 127 -5 6
-17 26 -27 45 -11 19 -22 37 -26 40 -28 21 -315 561 -409 770 -72 159 -79 173
-99 220 -11 25 -34 81 -52 125 -28 71 -45 112 -58 138 -4 8 19 -4 153 -83z"/>
<path d="M7790 6417 c-25 -12 -46 -25 -48 -29 -2 -5 -8 -8 -14 -8 -19 0 -288
-140 -443 -230 -49 -29 -103 -60 -120 -70 -73 -42 -140 -86 -143 -92 -2 -5 -8
-8 -14 -8 -9 0 -355 -227 -403 -264 -11 -9 -81 -60 -155 -115 -120 -89 -180
-136 -214 -166 -6 -5 -34 -28 -61 -49 -28 -22 -57 -47 -66 -55 -9 -9 -43 -38
-75 -66 -133 -115 -329 -309 -444 -440 -28 -33 -62 -71 -74 -85 -12 -14 -35
-43 -51 -65 -17 -22 -40 -51 -52 -65 -12 -14 -32 -41 -46 -60 -13 -19 -54 -79
-90 -132 -37 -53 -67 -100 -67 -103 0 -5 -50 -86 -60 -95 -3 -3 -6 -11 -8 -19
-2 -8 -11 -26 -21 -40 -17 -25 -73 -137 -124 -251 -131 -289 -224 -660 -228
-910 0 -36 0 -80 0 -98 l1 -33 52 6 c28 4 60 9 72 11 33 6 90 18 96 19 43 11
78 22 145 43 44 14 82 27 85 27 7 2 36 14 99 42 29 12 60 23 67 23 8 0 14 5
14 10 0 6 5 10 11 10 11 0 124 55 205 100 123 69 231 140 363 239 41 31 83 63
95 71 11 8 34 29 52 45 17 17 49 45 72 63 94 77 315 308 407 426 17 21 35 44
41 50 5 6 37 47 70 91 32 44 67 89 77 99 9 11 17 23 17 27 0 4 6 14 13 21 19
21 138 200 171 259 10 19 22 36 25 39 3 3 12 16 19 29 8 13 48 83 89 155 163
283 378 736 498 1051 15 39 33 84 40 100 18 42 29 79 27 88 -1 4 2 7 8 7 6 0
9 3 8 8 -1 4 19 70 44 147 48 142 87 266 84 264 0 0 -21 -10 -46 -22z m-386
-504 c-9 -21 -22 -51 -29 -68 -7 -16 -34 -82 -60 -145 -126 -301 -283 -614
-474 -944 -12 -21 -29 -45 -37 -53 -7 -8 -14 -19 -14 -24 0 -6 -11 -25 -25
-43 -14 -18 -25 -36 -25 -39 0 -10 -157 -234 -239 -341 -195 -255 -448 -508
-671 -669 -36 -26 -69 -51 -75 -55 -23 -18 -134 -92 -139 -92 -3 0 -25 -13
-49 -29 -49 -34 -300 -162 -322 -165 -9 -1 -21 -8 -27 -14 -7 -7 -19 -12 -27
-12 -9 0 -27 -6 -41 -13 -30 -16 -119 -41 -124 -36 -5 4 4 51 29 164 2 11 6
30 9 43 3 13 10 37 15 55 6 18 25 77 42 132 47 146 173 429 239 535 5 8 33 53
61 100 52 84 168 252 208 300 27 33 30 36 78 97 22 29 43 49 47 46 3 -4 6 -1
6 5 0 29 284 312 485 483 22 19 51 44 65 56 14 12 36 31 50 42 14 11 30 25 36
30 81 67 381 285 529 383 147 98 480 306 492 308 1 0 -5 -17 -13 -37z"/>
<path d="M1317 3264 c-1 -2 -32 -6 -68 -9 -119 -10 -183 -16 -214 -20 -16 -3
-50 -7 -75 -10 -25 -3 -54 -7 -65 -9 -11 -2 -40 -7 -65 -10 -69 -9 -148 -24
-320 -61 -12 -2 -132 -32 -200 -50 -56 -14 -205 -56 -252 -72 l-58 -18 94 -95
c103 -105 144 -143 202 -186 22 -16 43 -33 49 -37 39 -31 167 -117 175 -117 6
0 10 -4 10 -10 0 -5 4 -10 9 -10 5 0 39 -18 75 -40 36 -22 96 -55 133 -73 38
-17 69 -35 71 -39 2 -5 8 -8 13 -8 5 0 48 -18 96 -41 96 -44 106 -49 173 -74
25 -9 59 -23 75 -30 17 -7 89 -31 160 -54 143 -44 199 -59 284 -77 14 -3 28
-7 31 -9 4 -2 20 -7 36 -9 36 -7 72 -14 104 -21 49 -10 75 -15 110 -21 19 -3
41 -7 48 -9 7 -3 39 -7 70 -10 31 -3 68 -8 82 -11 14 -3 50 -8 80 -10 30 -2
80 -6 110 -9 268 -23 625 -23 870 0 93 8 159 15 195 19 22 3 60 8 84 11 108
13 161 100 111 182 -33 55 -66 64 -180 50 -152 -20 -199 -24 -375 -33 -229
-13 -555 -8 -720 10 -22 3 -65 7 -95 10 -30 3 -68 8 -85 12 -16 3 -48 7 -70 9
-22 1 -47 5 -55 9 -8 3 -31 8 -50 10 -78 11 -169 31 -360 80 -93 24 -245 72
-310 99 -14 5 -30 11 -36 12 -5 2 -30 12 -54 24 -24 11 -48 21 -52 21 -9 0
-175 75 -198 89 -8 6 -35 20 -60 32 -25 13 -73 40 -108 61 -34 21 -66 38 -71
38 -5 0 -11 3 -13 8 -2 4 -43 33 -91 66 -49 32 -85 62 -80 67 4 4 23 11 42 14
19 3 38 8 42 10 4 3 26 7 49 10 24 3 46 8 50 10 4 2 22 7 41 10 144 26 262 45
309 50 30 3 69 8 85 11 264 41 880 34 1124 -13 35 -6 56 -10 116 -17 28 -4 66
-11 85 -16 19 -5 50 -12 69 -15 19 -3 37 -8 41 -10 4 -2 20 -7 36 -9 57 -11
72 -15 145 -36 391 -114 717 -263 1044 -478 132 -87 348 -259 452 -359 l23
-22 -43 -47 c-23 -26 -49 -55 -57 -64 -9 -8 -29 -34 -45 -55 -17 -22 -32 -42
-35 -45 -3 -3 -28 -36 -56 -75 -146 -203 -247 -418 -290 -617 -19 -88 -26
-248 -14 -303 5 -22 11 -51 14 -65 35 -177 178 -367 346 -459 36 -19 160 -71
160 -66 0 2 20 -2 45 -10 30 -9 87 -12 163 -11 102 2 129 6 205 33 48 17 113
46 144 64 73 44 192 159 236 229 33 54 75 140 82 170 2 8 10 42 18 75 40 172
-7 431 -121 665 -63 130 -207 356 -234 368 -5 2 -8 8 -8 14 0 5 -6 15 -12 22
-19 20 -121 137 -140 161 -16 20 -15 22 23 55 22 19 52 46 67 60 15 14 50 43
77 65 27 22 56 46 63 53 8 6 44 33 80 59 37 26 69 50 72 53 3 3 47 33 98 65
51 33 109 70 128 82 19 12 64 38 100 58 37 19 72 39 78 43 45 33 462 209 541
228 17 4 35 9 40 13 6 3 15 6 20 8 6 1 35 9 65 18 101 29 273 72 315 79 17 2
30 5 30 6 0 1 11 3 25 5 34 5 77 12 125 20 65 12 68 13 127 20 273 34 638 38
958 9 30 -2 62 -5 70 -5 8 0 38 -4 65 -9 28 -5 70 -12 95 -15 70 -8 103 -13
130 -18 14 -3 43 -8 65 -12 65 -12 67 -13 145 -30 41 -9 86 -18 100 -21 14 -3
29 -9 33 -13 7 -7 -112 -96 -168 -127 -11 -6 -50 -29 -88 -52 -95 -59 -251
-136 -381 -188 -61 -25 -120 -49 -131 -53 -34 -15 -111 -41 -131 -46 -11 -2
-39 -11 -63 -19 -24 -9 -53 -18 -65 -21 -12 -2 -73 -18 -136 -34 -63 -17 -116
-30 -118 -30 -1 0 -26 -5 -55 -10 -28 -6 -63 -14 -77 -16 -14 -3 -41 -8 -60
-10 -19 -2 -56 -8 -82 -13 -25 -5 -62 -9 -82 -8 -20 1 -36 -1 -36 -4 0 -3 -17
-7 -37 -9 -21 -1 -54 -4 -73 -6 -174 -18 -551 -24 -735 -11 -49 3 -122 8 -162
11 -40 2 -89 7 -110 10 -66 9 -127 16 -158 19 -116 12 -177 -118 -95 -205 19
-20 41 -28 99 -34 25 -3 61 -8 80 -10 43 -7 131 -15 201 -20 30 -2 55 -4 55
-5 0 -9 593 -14 680 -6 22 2 78 7 125 11 117 10 150 13 185 19 17 3 55 8 85
12 87 10 106 13 255 44 28 6 60 12 73 15 13 2 31 6 40 9 9 3 28 7 42 10 14 3
52 13 85 22 33 9 65 17 70 18 6 2 37 11 70 21 33 10 65 20 70 21 10 2 188 68
235 87 14 6 30 11 35 13 17 4 160 69 165 74 3 3 30 16 60 30 30 14 92 46 138
72 46 27 85 48 87 48 8 0 270 178 290 197 11 10 43 36 70 58 27 22 91 83 142
135 99 101 98 98 33 116 -8 2 -71 20 -140 39 -130 37 -407 104 -450 110 -14 2
-36 6 -50 9 -14 3 -38 8 -55 11 -16 2 -39 6 -50 8 -11 3 -47 8 -80 12 -32 4
-67 8 -75 10 -36 7 -142 18 -300 31 -186 16 -660 10 -840 -11 -154 -18 -190
-22 -265 -36 -33 -6 -73 -13 -90 -15 -16 -2 -46 -8 -65 -13 -28 -8 -246 -61
-310 -76 -63 -15 -360 -121 -435 -155 -11 -5 -42 -19 -70 -30 -81 -35 -273
-134 -365 -187 -91 -53 -262 -162 -270 -173 -3 -3 -27 -21 -55 -40 -27 -19
-52 -36 -55 -39 -3 -3 -30 -25 -60 -48 -30 -23 -64 -50 -75 -60 -11 -10 -47
-40 -80 -68 -33 -27 -68 -60 -78 -72 -30 -37 -36 -35 -141 62 -85 79 -366 295
-384 295 -5 0 -17 9 -27 20 -10 11 -24 20 -31 20 -7 0 -14 4 -16 8 -5 11 -172
111 -263 157 -44 22 -81 43 -83 48 -2 4 -8 7 -13 7 -4 0 -43 17 -86 38 -43 21
-109 51 -148 66 -38 16 -81 33 -95 39 -14 5 -29 11 -35 13 -5 2 -70 23 -144
48 -73 26 -143 48 -155 51 -11 2 -64 16 -116 30 -52 14 -108 27 -125 30 -16 3
-38 8 -47 11 -25 8 -52 13 -178 34 -30 5 -75 12 -100 15 -25 3 -56 8 -70 10
-14 2 -55 7 -92 11 -37 3 -82 8 -100 10 -40 6 -676 13 -681 8z m3149 -1461
c22 -26 44 -51 49 -57 6 -6 31 -38 55 -71 25 -33 53 -69 62 -79 10 -11 24 -32
30 -48 7 -15 16 -28 20 -28 5 0 8 -5 8 -12 0 -6 6 -19 14 -27 16 -18 117 -216
120 -234 1 -7 7 -25 14 -42 24 -59 50 -198 50 -265 0 -93 -32 -220 -61 -241
-5 -3 -9 -10 -9 -15 0 -27 -85 -116 -153 -159 -48 -31 -122 -61 -137 -57 -5 1
-8 -2 -8 -6 0 -13 -163 -14 -216 -1 -114 28 -196 81 -281 183 -27 32 -73 142
-84 200 -11 63 -6 181 11 251 6 22 12 47 14 55 2 8 12 35 21 60 9 25 17 50 19
55 11 46 159 306 178 313 4 2 8 8 8 13 0 9 95 134 125 165 5 6 27 31 48 57 22
25 45 43 52 41 7 -3 30 -26 51 -51z"/>
<path d="M3358 1865 c-2 -2 -23 -5 -48 -8 -405 -53 -794 -315 -1159 -782 -39
-49 -75 -95 -79 -100 -42 -52 -222 -332 -222 -346 0 -5 -5 -9 -11 -9 -5 0 -7
-5 -4 -10 4 -6 9 -8 13 -6 4 2 39 7 77 11 39 3 102 11 140 16 39 6 88 13 110
15 22 3 46 7 54 10 8 2 30 7 50 10 20 3 52 9 71 14 19 5 49 12 67 15 18 3 44
10 58 15 15 6 31 8 36 4 5 -3 9 -1 9 4 0 5 6 9 13 9 6 0 39 9 72 19 33 10 62
19 65 19 5 2 26 9 80 30 42 16 73 28 80 30 112 38 349 170 445 248 163 132
317 322 396 491 31 68 79 220 79 254 0 5 -24 14 -52 21 -29 6 -64 14 -78 17
-24 6 -257 13 -262 9z m58 -277 c-81 -137 -204 -270 -331 -358 -27 -19 -52
-37 -55 -40 -3 -3 -18 -12 -35 -20 -16 -8 -32 -17 -35 -20 -16 -17 -262 -127
-302 -136 -5 -1 -10 -3 -13 -4 -3 -1 -8 -3 -12 -4 -5 -1 -37 -12 -73 -23 -59
-20 -167 -49 -213 -59 -15 -2 -13 3 8 29 103 125 267 295 349 362 27 22 54 45
60 50 6 6 38 29 72 52 155 107 328 179 479 199 28 3 51 7 52 8 1 1 18 3 38 4
l37 3 -26 -43z"/>
<path d="M5260 1860 c0 -5 -9 -6 -19 -3 -10 3 -54 -3 -96 -12 l-77 -17 6 -32
c13 -69 15 -76 21 -86 4 -6 9 -23 11 -38 7 -38 79 -186 125 -255 22 -32 39
-60 39 -62 0 -17 185 -209 255 -265 82 -64 163 -120 175 -120 5 0 10 -5 10
-11 0 -5 4 -8 9 -4 5 3 12 1 16 -5 12 -19 329 -163 386 -175 9 -2 37 -10 63
-19 85 -29 268 -75 361 -92 17 -2 37 -7 45 -9 8 -3 31 -7 50 -9 19 -3 55 -7
80 -11 80 -10 114 -14 175 -21 67 -7 65 -7 82 -5 21 2 -230 380 -333 501 -12
14 -41 48 -64 75 -146 173 -350 358 -505 457 -132 86 -332 173 -418 184 -16 2
-32 6 -37 9 -4 3 -25 7 -45 11 -21 3 -47 8 -59 11 -37 8 -256 11 -256 3z m253
-245 c15 -3 38 -7 52 -9 87 -15 272 -93 353 -147 24 -16 45 -29 48 -29 6 0
127 -94 173 -135 111 -97 350 -359 338 -371 -7 -8 -284 78 -397 123 -320 127
-529 295 -680 547 l-24 39 55 -6 c30 -4 66 -9 82 -12z"/>
</g>
</svg>
