<?xml version="1.0" encoding="utf-8"?>
<svg width="194px" height="316px" viewBox="0 0 194 316" version="1.1" xmlns:xlink="http://www.w3.org/1999/xlink" xmlns="http://www.w3.org/2000/svg">
  <desc>Created with Lunacy</desc>
  <g stroke="#404040" stroke-opacity="0.29517764" stroke-width="0.5" id="CBD" fill="#FFFFFF" fill-opacity="0.29517764" transform="matrix(-4.371139E-08 -1 1 -4.371139E-08 0 316)">
    <path d="M47.892 149.348Q35.724 149.348 26.52 144.59Q17.316 139.832 12.324 131.252Q7.332 122.672 7.332 111.44L7.332 75.404Q7.332 64.172 12.324 55.592Q17.316 47.012 26.52 42.332Q35.724 37.652 47.892 37.652Q59.904 37.652 69.03 42.098Q78.156 46.544 83.226 54.734Q88.296 62.924 88.296 73.688Q88.296 75.092 86.424 75.404L68.172 76.496L67.86 76.496Q67.1541 76.496 66.7676 76.1447Q66.3 75.7195 66.3 74.78Q66.3 66.512 61.23 61.52Q56.16 56.528 47.892 56.528Q39.468 56.528 34.398 61.52Q29.328 66.512 29.328 74.78L29.328 112.376Q29.328 120.488 34.398 125.48Q39.468 130.472 47.892 130.472Q56.16 130.472 61.23 125.48Q66.3 120.488 66.3 112.376Q66.3 110.66 68.172 110.66L86.424 111.44Q87.204 111.44 87.75 111.908Q88.296 112.376 88.296 113Q88.296 123.764 83.226 132.032Q78.156 140.3 69.03 144.824Q59.904 149.348 47.892 149.348ZM169.104 91.16Q168.636 91.394 168.636 91.628Q168.636 91.862 169.104 92.096Q183.924 99.74 183.924 117.524Q183.924 132.656 173.628 140.378C166.764 145.526 157.768 148.1 146.64 148.1L106.236 148.1C105.716 148.1 105.274 147.918 104.91 147.554Q104.364 147.008 104.364 146.228L104.364 40.772Q104.364 39.992 104.91 39.446Q105.456 38.9 106.236 38.9L145.392 38.9Q182.364 38.9 182.364 68.852Q182.364 84.452 169.104 91.16ZM201.63 147.554C201.994 147.918 202.436 148.1 202.956 148.1L241.956 148.1Q253.656 148.1 262.47 143.966Q271.284 139.832 276.12 132.344Q280.956 124.856 280.956 115.028L280.956 71.972Q280.956 62.144 276.12 54.656Q271.284 47.168 262.47 43.034Q253.656 38.9 241.956 38.9L202.956 38.9Q202.176 38.9 201.63 39.446Q201.084 39.992 201.084 40.772L201.084 146.228Q201.084 147.008 201.63 147.554ZM127.14 57.776Q126.36 57.776 126.36 58.556L126.36 82.892Q126.36 83.672 127.14 83.672L145.392 83.672Q152.724 83.672 156.78 80.24Q160.836 76.808 160.836 70.88Q160.836 64.796 156.78 61.286Q152.724 57.776 145.392 57.776L127.14 57.776ZM223.86 129.224Q223.08 129.224 223.08 128.444L223.08 58.556Q223.08 57.776 223.86 57.776L242.58 57.776Q250.068 57.776 254.514 62.612Q258.96 67.448 258.96 75.56L258.96 111.44Q258.804 119.552 254.358 124.388Q249.912 129.224 242.736 129.224L223.86 129.224ZM146.64 129.068Q153.816 129.068 157.872 125.402Q161.928 121.736 161.928 115.34Q161.928 108.944 157.872 105.278Q153.816 101.612 146.484 101.612L127.14 101.612Q126.36 101.612 126.36 102.392L126.36 128.288Q126.36 129.068 127.14 129.068L146.64 129.068Z" />
  </g>
</svg>