<?xml version="1.0" encoding="utf-8"?>
<svg width="2109px" height="346px" viewBox="0 0 2109 346" version="1.1" xmlns:xlink="http://www.w3.org/1999/xlink" xmlns="http://www.w3.org/2000/svg">
  <desc>Created with Lunacy</desc>
  <g id="g14" transform="matrix(1.333333 0 0 -1.333333 0 346.4512)">
    <g id="g20" transform="matrix(0.7500002 0 0 0.7500002 104.8408 91.2001)">
      <path d="M25.6414 0L22.122 4.96533C21.219 6.2398 0 36.8348 0 93.9501C0 150.292 20.5957 210.308 21.4727 212.835L25.6414 224.851L29.8107 212.835C30.6872 210.308 51.2829 150.292 51.2829 93.9501C51.2829 36.8348 30.0644 6.2398 29.1609 4.96533L25.6414 0ZM25.6415 195.949C19.5466 175.047 8.92386 133.011 8.92386 93.9501C8.92386 54.2467 19.8438 28.1093 25.641 17.0324C27.499 20.5758 29.8793 25.6511 32.244 32.1819C36.8586 44.9255 42.3595 65.9865 42.3595 93.9501C42.3595 133.011 31.7368 175.047 25.6415 195.949Z" transform="translate(-3.051758E-05 -7.629395E-06)" id="path22" fill="#495E2B" fill-rule="evenodd" stroke="none" />
    </g>
    <g id="g24" transform="matrix(0.7500002 0 0 0.7500002 134.1442 82.16979)">
      <path d="M2.30299e-06 5.69909L0.0045061 0L5.12929 0.85202C6.4375 1.06984 37.5069 6.61108 66.7568 44.0345C95.52 80.8357 111.285 134.033 111.942 136.28L115.183 147.363L105.705 142.173C103.784 141.12 58.3222 115.984 29.5586 79.1823C0.309169 41.7594 -0.000997691 7.15343 2.30299e-06 5.69909ZM99.457 127.242C84.3828 117.703 55.8823 97.8081 36.3262 72.7873C16.4214 47.3204 10.9734 23.2661 9.4836 12.149C19.2754 15.4746 40.1713 25.0746 59.9886 50.4288C79.5447 75.4501 93.1476 109.422 99.457 127.242Z" transform="translate(0 3.999382E-05)" id="path26" fill="#495E2B" fill-rule="evenodd" stroke="none" />
    </g>
    <g id="g28" transform="matrix(0.7500002 0 0 0.7500002 27.61072 82.16955)">
      <path d="M115.179 0L110.054 0.852581C108.746 1.07041 77.6767 6.61163 48.4268 44.035C19.6632 80.8357 3.89811 134.033 3.24126 136.28L0 147.363L9.47815 142.173C11.3992 141.121 56.8609 115.984 85.6246 79.1823C114.874 41.7594 115.185 7.15398 115.183 5.69909L115.179 0ZM55.1945 50.4293C75.0998 24.9625 95.9086 15.4229 105.68 12.1314C104.163 23.2755 98.6737 47.4332 78.8564 72.7873C59.2787 97.8362 30.7912 117.718 15.7245 127.248C22.033 109.429 35.6369 75.4529 55.1945 50.4293Z" transform="translate(-5.029062E-05 3.199429E-05)" id="path30" fill="#495E2B" fill-rule="evenodd" stroke="none" />
    </g>
    <g id="g32" transform="matrix(0.7500002 0 0 0.7500002 142.5225 12.18217)">
      <path d="M72.1767 0L63.0123 1.12156C62.0477 1.23927 39.2038 4.14575 22.4772 15.8663C5.11928 28.029 1.22517 44.8392 1.06808 45.5488L0 50.3689L4.39589 51.4893C5.02873 51.6499 20.0924 55.2973 37.5159 43.0884C54.2195 31.3844 66.7633 9.52251 67.2896 8.59732L72.1767 0ZM11.7969 42.3199C14.0872 37.4305 18.6581 30.1764 27.2728 24.1401C35.5518 18.3387 45.8599 14.902 53.4466 12.9856C48.5159 19.8739 41.0983 28.9443 32.7203 34.8139C24.2517 40.7484 16.6375 42.1632 11.7969 42.3199Z" transform="translate(-0.0001083207 3.199516E-05)" id="path34" fill="#495E2B" fill-rule="evenodd" stroke="none" />
    </g>
    <g id="g36" transform="matrix(0.7500002 0 0 0.7500002 51.48793 12.18217)">
      <path d="M0 0L4.88766 8.59732C5.41344 9.52251 17.9578 31.3843 34.6609 43.0889C52.0843 55.2973 67.1485 51.6499 67.7814 51.4893L72.1773 50.3689L71.1092 45.5487C70.9516 44.8392 67.058 28.029 49.7 15.8663C32.9739 4.14575 10.129 1.23982 9.16448 1.12156L0 0ZM60.3799 42.3221C55.5458 42.1648 47.9306 40.7523 39.4565 34.8145C31.0574 28.9289 23.6449 19.8657 18.7217 12.9834C26.3088 14.8993 36.6215 18.3371 44.9045 24.1402C53.5167 30.1748 58.0871 37.4267 60.3799 42.3221Z" transform="translate(-6.189646E-05 3.199461E-05)" id="path38" fill="#495E2B" fill-rule="evenodd" stroke="none" />
    </g>
    <g id="g40" transform="matrix(0.7500002 0 0 0.7500002 103.8836 0)">
      <path d="M26.9176 0C12.0756 0 0 13.2772 0 29.5961C0 54.486 22.929 77.8456 23.905 78.828L26.9176 81.8594L29.9298 78.828C30.9063 77.8456 53.8348 54.486 53.8348 29.5961C53.8348 13.2772 41.7597 0 26.9176 0ZM26.9177 68.2505C21.1075 61.4535 8.92386 45.3238 8.92386 29.5961C8.92386 18.6869 16.9958 9.81184 26.9177 9.81184C36.8391 9.81184 44.9109 18.6869 44.9109 29.5961C44.9109 45.3227 32.7293 61.4513 26.9177 68.2505Z" transform="translate(-4.57763E-05 1.525876E-05)" id="path42" fill="#89C65B" fill-rule="evenodd" stroke="none" />
    </g>
    <g id="g44" transform="matrix(0.7500002 0 0 0.7500002 120.7245 52.72793)">
      <path d="M4.46182 0C3.3242 0 2.18658 0.475245 1.31611 1.42684C-0.43134 3.33662 -0.439845 6.44277 1.2976 8.36465C22.0044 31.2661 47.4332 46.1214 76.8783 52.5152C103.984 58.4018 133.716 56.6032 162.861 47.3128L169.891 45.0713L164.858 39.2275C164.437 38.7397 154.324 27.1572 133.749 17.1765C114.984 8.07367 83.4569 -1.40923 39.8156 5.11494C37.3742 5.48017 35.6638 7.95211 35.9955 10.6369C36.3282 13.3217 38.5759 15.2018 41.0182 14.8371C82.3273 8.66223 112.033 17.4598 129.68 25.9278C140.015 30.8871 147.539 36.3161 152.286 40.2737C96.2193 55.4508 43.8618 41.5229 7.62605 1.44719C6.75407 0.482396 5.60795 0 4.46182 0" transform="translate(-9.284587E-05 3.199481E-05)" id="path46" fill="#89C65B" stroke="none" />
    </g>
    <g id="g48" transform="matrix(0.7500002 0 0 0.7500002 0 52.72793)">
      <path d="M165.43 0C164.283 0 163.137 0.482396 162.265 1.44719C126.03 41.5224 73.6726 55.4508 17.6051 40.2737C22.3502 36.3172 29.8758 30.8871 40.2119 25.9278C57.8585 17.4598 87.5636 8.66278 128.874 14.8371C131.312 15.2062 133.563 13.3217 133.895 10.6369C134.228 7.95211 132.517 5.48017 130.076 5.11493C119.991 3.60779 110.547 2.95488 101.764 2.95433C72.54 2.95323 50.571 10.1771 36.1422 17.1765C15.567 27.1572 5.45397 38.7397 5.03374 39.2275L0 45.0713L7.03083 47.3128C36.1747 56.6032 65.9064 58.4018 93.0131 52.5152C122.458 46.1214 147.886 31.2666 168.594 8.36465C170.331 6.44332 170.323 3.33662 168.575 1.42684C167.705 0.475245 166.567 0 165.43 0" transform="translate(-5.149972E-05 3.199481E-05)" id="path50" fill="#89C65B" stroke="none" />
    </g>
    <g id="g64" transform="translate(308.7635 14.84746)">
      <path d="M0 193.278L35.1569 193.278L93.1665 64.8842L150.924 193.278L185.832 193.278L185.832 0L158.46 0L158.206 144.408L102.708 20.1594L83.3731 20.1594L27.8746 144.408L27.8746 0L0 0L0 193.278L0 193.278Z" transform="translate(0.0001547428 0)" id="path66" fill="#89C65B" stroke="none" />
    </g>
    <g id="g68" transform="translate(541.015 14.84746)">
      <path d="M0 193.278L125.56 193.278L125.56 164.011L29.6306 164.011L29.6306 111.827L115.516 111.827L115.516 82.555L29.6306 82.555L29.6306 29.2671L128.576 29.2671L128.576 0L0 0L0 193.278L0 193.278Z" id="path70" fill="#89C65B" stroke="none" />
    </g>
    <g id="g72" transform="translate(705.7009 14.8427)">
      <path d="M72.0911 193.261L0 193.261L0 164.046L71.5959 164.046C106.217 164.046 133.096 135.855 133.096 96.3576C133.096 57.1328 107.022 29.2821 72.834 29.2821L0 29.2821L0 0L71.3483 0C124.55 0 163.011 40.8583 163.011 96.6315C163.011 152.674 124.798 193.261 72.0911 193.261" id="path74" fill="#89C65B" stroke="none" />
    </g>
    <g id="g76" transform="translate(900.3112 14.84763)">
      <path d="M0 193.278L29.6307 193.278L29.6307 93.3245L113.507 193.278L148.415 193.278L80.3609 110.721L152.934 0L117.277 0L59.515 85.3176L29.6307 49.1509L29.6307 0L0 0L0 193.278L0 193.278Z" transform="translate(0.0001856867 0)" id="path78" fill="#495E2B" stroke="none" />
    </g>
    <g id="g80" transform="translate(1077.07 13.46606)">
      <path d="M0 194.659L29.6367 194.659L29.6367 81.456C29.6367 48.8753 47.9655 29.267 76.8457 29.267C105.477 29.267 123.306 48.5947 123.306 81.456L123.306 194.659L152.936 194.659L152.936 81.456C152.936 30.9239 124.056 0 76.595 0C29.1308 1.27427e-05 0 30.9239 0 81.456L0 194.659L0 194.659Z" transform="translate(-0.0001237831 0)" id="path82" fill="#495E2B" stroke="none" />
    </g>
    <g id="g84" transform="translate(1255.835 13.74036)">
      <path d="M12.8102 58.8147C30.893 40.5944 53.4919 30.65 72.3282 30.65C92.9189 30.65 105.223 39.2131 105.223 54.1197C105.223 97.1944 10.3022 73.1735 10.3022 141.928C10.3022 175.058 36.1641 195.767 74.3349 195.767C97.189 195.767 119.539 187.758 135.86 175.89L123.557 147.17C104.473 159.874 85.386 165.117 72.0775 165.117C54.7482 165.117 43.448 157.943 43.448 144.966C43.448 102.714 138.372 125.356 138.123 55.7783C138.123 21.2668 110.499 0 71.8284 0C44.2029 0 18.0858 12.428 0 30.65L12.8102 58.8147L12.8102 58.8147Z" id="path86" fill="#495E2B" stroke="none" />
    </g>
    <g id="g88" transform="translate(1428.588 14.84763)">
      <path d="M0 193.278L29.6322 193.278L29.6322 109.34L122.8 109.34L122.8 193.278L152.432 193.278L152.432 0L122.8 0L122.8 80.0748L29.6322 80.0748L29.6322 0L0 0L0 193.278L0 193.278Z" id="path90" fill="#495E2B" stroke="none" />
    </g>
    <path d="M83.2546 0L0 0L0 29.0048L83.2546 29.0048L83.2546 0L83.2546 0Z" transform="translate(678.9294 97.67036)" id="path92" fill="#89C65B" stroke="none" />
    <path d="M29.6671 0L0 0L0 91.5224L29.6671 91.5224L29.6671 0L29.6671 0Z" transform="translate(705.7 66.3925)" id="path94" fill="#89C65B" stroke="none" />
  </g>
</svg>