<?xml version="1.0" encoding="UTF-8" standalone="no"?>
<svg
   xmlns:dc="http://purl.org/dc/elements/1.1/"
   xmlns:cc="http://creativecommons.org/ns#"
   xmlns:rdf="http://www.w3.org/1999/02/22-rdf-syntax-ns#"
   xmlns:svg="http://www.w3.org/2000/svg"
   xmlns="http://www.w3.org/2000/svg"
   xmlns:sodipodi="http://sodipodi.sourceforge.net/DTD/sodipodi-0.dtd"
   xmlns:inkscape="http://www.inkscape.org/namespaces/inkscape"
   inkscape:version="1.0 (4035a4fb49, 2020-05-01)"
   sodipodi:docname="medkush-logo-white.svg"
   version="1.1"
   id="svg2"
   xml:space="preserve"
   width="1600"
   height="1600"
   viewBox="0 0 1600 1600"><sodipodi:namedview
     inkscape:current-layer="g12"
     inkscape:window-maximized="0"
     inkscape:window-y="1"
     inkscape:window-x="0"
     inkscape:cy="1583.5495"
     inkscape:cx="-390.49482"
     inkscape:zoom="0.265625"
     showgrid="false"
     id="namedview48"
     inkscape:window-height="994"
     inkscape:window-width="1698"
     inkscape:pageshadow="2"
     inkscape:pageopacity="0"
     guidetolerance="10"
     gridtolerance="10"
     objecttolerance="10"
     borderopacity="1"
     bordercolor="#666666"
     pagecolor="#ffffff" /><metadata
     id="metadata8"><rdf:RDF><cc:Work
         rdf:about=""><dc:format>image/svg+xml</dc:format><dc:type
           rdf:resource="http://purl.org/dc/dcmitype/StillImage" /><dc:title></dc:title></cc:Work></rdf:RDF></metadata><defs
     id="defs6"><clipPath
       clipPathUnits="userSpaceOnUse"
       id="clipPath18"><path
         d="M 0,1200 H 1200 V 0 H 0 Z"
         id="path16" /></clipPath></defs><g
     id="g10"
     transform="matrix(1.3333333,0,0,-1.3333333,0,1600)"><g
       id="g12"><g
         transform="translate(600,993.4556)"
         id="g20"><path
           id="path22"
           style="fill:#ffffff;fill-opacity:1;fill-rule:nonzero;stroke:none"
           d="m 0,0 c -12.183,-38 -33.417,-114.422 -33.417,-185.435 0,-72.181 21.828,-119.699 33.416,-139.837 3.714,6.442 8.472,15.669 13.199,27.542 9.224,23.168 20.22,61.457 20.22,112.295 C 33.418,-114.422 12.184,-38 0,0 m 0,-356.237 -7.035,9.027 c -1.805,2.317 -44.22,57.939 -44.22,161.775 0,102.43 41.169,211.539 42.922,216.133 L 0,52.544 8.334,30.698 c 1.752,-4.594 42.921,-113.703 42.921,-216.133 0,-103.836 -42.414,-159.458 -44.22,-161.775 z" /></g><g
         style="fill:#ffffff;fill-opacity:1"
         transform="translate(753.5225,701.1973)"
         id="g24"><path
           id="path26"
           style="fill:#ffffff;fill-opacity:1;fill-rule:nonzero;stroke:none"
           d="M 0,0 H 0.009 Z M 72.13,145.459 C 41.998,128.118 -14.972,91.948 -54.063,46.46 -93.851,0.161 -104.741,-43.57 -107.719,-63.781 c 19.573,6.046 61.342,23.499 100.955,69.593 39.091,45.489 66.282,107.251 78.894,139.647 m -198.797,-231.327 -0.009,10.361 c -0.002,2.644 0.618,65.558 59.085,133.593 57.496,66.905 148.37,112.604 152.21,114.517 l 18.946,9.436 -6.479,-20.149 C 95.773,157.805 64.26,61.092 6.765,-5.813 -51.703,-73.849 -113.808,-83.923 -116.423,-84.319 Z" /></g><g
         style="fill:#ffffff;fill-opacity:1"
         transform="translate(453.2412,707.0098)"
         id="g28"><path
           id="path30"
           style="fill:#ffffff;fill-opacity:1;fill-rule:nonzero;stroke:none"
           d="M 0,0 C 39.789,-46.299 81.384,-63.642 100.917,-69.626 97.883,-49.366 86.911,-5.447 47.298,40.647 8.164,86.186 -48.78,122.332 -78.897,139.656 -66.287,107.262 -39.094,45.493 0,0 m 119.903,-91.681 -10.243,1.55 c -2.616,0.396 -64.72,10.47 -123.188,78.506 v 0 c -57.496,66.904 -89.009,163.618 -90.322,167.702 l -6.479,20.15 18.946,-9.436 c 3.84,-1.913 94.714,-47.613 152.21,-114.518 58.467,-68.035 59.088,-130.948 59.085,-133.593 z" /></g><g
         style="fill:#ffffff;fill-opacity:1"
         transform="translate(672.7568,522.6162)"
         id="g32"><path
           id="path34"
           style="fill:#ffffff;fill-opacity:1;fill-rule:nonzero;stroke:none"
           d="M 0,0 C 4.578,-8.889 13.715,-22.077 30.935,-33.051 47.484,-43.598 68.089,-49.846 83.254,-53.33 73.398,-40.807 58.571,-24.317 41.824,-13.646 24.896,-2.857 9.676,-0.285 0,0 m 120.694,-76.938 -18.319,2.039 c -1.928,0.214 -47.591,5.498 -81.026,26.806 C -13.348,-25.981 -21.132,4.58 -21.446,5.87 l -2.135,8.763 8.787,2.037 c 1.265,0.292 31.376,6.923 66.204,-15.273 33.389,-21.278 58.463,-61.023 59.515,-62.705 z" /></g><g
         style="fill:#ffffff;fill-opacity:1"
         transform="translate(527.2422,522.6201)"
         id="g36"><path
           id="path38"
           style="fill:#ffffff;fill-opacity:1;fill-rule:nonzero;stroke:none"
           d="m 0,0 c -9.663,-0.286 -24.885,-2.854 -41.824,-13.649 -16.789,-10.7 -31.606,-27.177 -41.447,-39.689 15.166,3.483 35.78,9.733 52.337,20.283 C -13.719,-22.084 -4.583,-8.9 0,0 m -120.694,-76.942 9.77,15.63 c 1.051,1.682 26.126,41.427 59.514,62.706 34.828,22.195 64.94,15.564 66.205,15.272 l 8.787,-2.037 -2.135,-8.763 c -0.315,-1.29 -8.098,-31.851 -42.795,-53.963 -33.434,-21.308 -79.099,-26.591 -81.027,-26.806 z" /></g><g
         style="fill:#ffffff;fill-opacity:1"
         transform="translate(600,540.2285)"
         id="g40"><path
           id="path42"
           style="fill:#ffffff;fill-opacity:1;fill-rule:nonzero;stroke:none"
           d="m 0,0 c -11.614,-12.357 -35.968,-41.681 -35.968,-70.274 0,-19.833 16.135,-35.968 35.968,-35.968 19.832,0 35.967,16.135 35.967,35.968 C 35.967,-41.683 11.617,-12.361 0,0 m 0,-124.08 c -29.668,0 -53.806,24.138 -53.806,53.806 0,45.25 45.833,87.718 47.784,89.504 L 0,24.741 6.021,19.23 C 7.973,17.444 53.805,-25.024 53.805,-70.274 53.805,-99.942 29.668,-124.08 0,-124.08" /></g><g
         style="fill:#ffffff;fill-opacity:1"
         transform="translate(600,543.9609)"
         id="g44"><path
           id="path46"
           style="fill:#ffffff;fill-opacity:1;fill-rule:nonzero;stroke:none"
           d="m 0,0 c -2.274,0 -4.548,0.864 -6.288,2.594 -3.493,3.472 -3.51,9.119 -0.037,12.613 41.391,41.635 92.221,68.642 151.079,80.266 54.182,10.702 113.613,7.432 171.871,-9.458 L 330.679,81.94 320.617,71.316 C 319.776,70.429 299.562,49.372 258.434,31.227 220.924,14.678 157.904,-2.562 70.669,9.299 c -4.88,0.664 -8.299,5.158 -7.636,10.039 0.665,4.881 5.158,8.299 10.04,7.636 82.573,-11.226 141.952,4.768 177.226,20.163 20.659,9.016 35.7,18.886 45.188,26.081 C 183.415,100.81 78.757,75.489 6.325,2.631 4.582,0.877 2.291,0 0,0" /></g><g
         style="fill:#ffffff;fill-opacity:1"
         transform="translate(600,543.9609)"
         id="g48"><path
           id="path50"
           style="fill:#ffffff;fill-opacity:1;fill-rule:nonzero;stroke:none"
           d="m 0,0 c -2.292,0 -4.582,0.877 -6.325,2.631 -72.431,72.857 -177.089,98.179 -289.163,70.587 9.485,-7.193 24.528,-17.065 45.189,-26.081 35.274,-15.395 94.652,-31.388 177.227,-20.163 4.874,0.671 9.374,-2.755 10.038,-7.636 0.664,-4.881 -2.755,-9.375 -7.635,-10.039 -20.158,-2.74 -39.036,-3.927 -56.592,-3.928 -58.417,-0.002 -102.331,13.131 -131.173,25.856 -41.128,18.145 -61.343,39.202 -62.183,40.089 l -10.062,10.624 14.054,4.075 c 58.256,16.89 117.687,20.16 171.871,9.458 C -85.897,83.849 -35.067,56.843 6.325,15.207 9.798,11.714 9.781,6.066 6.287,2.594 4.548,0.864 2.274,0 0,0" /></g><g
         style="fill:#ffffff;fill-opacity:1"
         transform="translate(539.2402,203.4463)"
         id="g52"><path
           id="path54"
           style="fill:#ffffff;fill-opacity:1;fill-rule:nonzero;stroke:none"
           d="M 0,0 H 9.888 L 26.208,-32.845 42.455,0 h 9.817 v -49.446 h -7.699 l -0.07,36.945 -15.611,-31.79 H 23.451 L 7.84,-12.501 V -49.446 H 0 Z" /></g><g
         style="fill:#ffffff;fill-opacity:1"
         transform="translate(632.4316,179.3594)"
         id="g56"><path
           id="path58"
           style="fill:#ffffff;fill-opacity:1;fill-rule:nonzero;stroke:none"
           d="m 0,0 -16.741,24.087 h 9.679 L 5.016,6.921 17.166,24.087 h 9.75 L 10.314,0.354 28.328,-25.359 h -9.96 L 5.016,-6.712 -8.264,-25.359 h -9.748 z" /></g><path
         id="path60"
         style="fill:#ffffff;fill-opacity:1;fill-rule:nonzero;stroke:none"
         d="M 509,183.211 H 181.233 v -8.972 H 509 Z" /><path
         id="path62"
         style="fill:#ffffff;fill-opacity:1;fill-rule:nonzero;stroke:none"
         d="m 691,174.239 h 327.768 v 8.972 H 691 Z" /><g
         style="fill:#ffffff;fill-opacity:1"
         transform="translate(181.2339,355.6006)"
         id="g64"><path
           id="path66"
           style="fill:#ffffff;fill-opacity:1;fill-rule:nonzero;stroke:none"
           d="M 0,0 H 23.144 L 61.332,-76.873 99.354,0 h 22.98 v -115.721 h -18.019 l -0.167,86.461 -36.535,-74.391 H 54.885 L 18.35,-29.26 v -86.461 H 0 Z" /></g><g
         style="fill:#ffffff;fill-opacity:1"
         transform="translate(334.126,355.6006)"
         id="g68"><path
           id="path70"
           style="fill:#ffffff;fill-opacity:1;fill-rule:nonzero;stroke:none"
           d="M 0,0 H 82.657 V -17.523 H 19.506 V -48.767 H 76.045 V -66.293 H 19.506 v -31.905 h 65.136 v -17.523 H 0 Z" /></g><g
         style="fill:#ffffff;fill-opacity:1"
         transform="translate(489.9976,355.5879)"
         id="g72"><path
           id="path74"
           style="fill:#ffffff;fill-opacity:1;fill-rule:nonzero;stroke:none"
           d="m 0,0 h -47.458 v -17.492 h 47.132 c 22.791,0 40.486,-16.879 40.486,-40.527 0,-23.485 -17.165,-40.16 -39.671,-40.16 h -47.947 v -17.532 h 46.969 c 35.023,0 60.342,24.463 60.342,57.856 C 59.853,-24.301 34.697,0 0,0" /></g><g
         style="fill:#ffffff;fill-opacity:1"
         transform="translate(570.6528,355.6006)"
         id="g76"><path
           id="path78"
           style="fill:#ffffff;fill-opacity:1;fill-rule:nonzero;stroke:none"
           d="M 0,0 H 19.506 V -59.845 L 74.722,0 h 22.98 l -44.8,-49.429 47.775,-66.292 H 77.204 L 39.179,-64.639 19.506,-86.293 v -29.428 H 0 Z" /></g><g
         style="fill:#ffffff;fill-opacity:1"
         transform="translate(687.0137,355.6006)"
         id="g80"><path
           id="path82"
           style="fill:#ffffff;fill-opacity:1;fill-rule:nonzero;stroke:none"
           d="m 0,0 h 19.51 v -67.778 c 0,-19.507 12.066,-31.247 31.078,-31.247 18.848,0 30.585,11.572 30.585,31.247 V 0 h 19.506 v -67.778 c 0,-30.255 -19.012,-48.77 -50.256,-48.77 C 19.177,-116.548 0,-98.033 0,-67.778 Z" /></g><g
         style="fill:#ffffff;fill-opacity:1"
         transform="translate(813.1289,274.4307)"
         id="g84"><path
           id="path86"
           style="fill:#ffffff;fill-opacity:1;fill-rule:nonzero;stroke:none"
           d="m 0,0 c 11.904,-10.909 26.781,-16.863 39.181,-16.863 13.555,0 21.655,5.127 21.655,14.052 0,25.79 -62.487,11.408 -62.487,52.573 0,19.836 17.025,32.235 42.153,32.235 15.045,0 29.758,-4.795 40.502,-11.901 L 72.905,52.901 c -12.563,7.606 -25.128,10.745 -33.889,10.745 -11.408,0 -18.847,-4.295 -18.847,-12.065 0,-25.297 62.489,-11.741 62.325,-53.399 0,-20.663 -18.185,-33.396 -43.642,-33.396 -18.186,0 -35.379,7.441 -47.285,18.351 z" /></g><g
         style="fill:#ffffff;fill-opacity:1"
         transform="translate(918.4199,355.6006)"
         id="g88"><path
           id="path90"
           style="fill:#ffffff;fill-opacity:1;fill-rule:nonzero;stroke:none"
           d="M 0,0 H 19.507 V -50.256 H 80.84 V 0 h 19.507 V -115.721 H 80.84 v 47.943 H 19.507 v -47.943 H 0 Z" /></g><path
         id="path92"
         style="fill:#ffffff;fill-opacity:1;fill-rule:nonzero;stroke:none"
         d="m 479.723,289.468 h -54.807 v 17.366 h 54.807 z" /><path
         id="path94"
         style="fill:#ffffff;fill-opacity:1;fill-rule:nonzero;stroke:none"
         d="m 462.069,270.741 h -19.53 v 54.797 h 19.53 z" /></g></g></svg>
