<?xml version="1.0" encoding="utf-8"?>
<svg width="1117px" height="1190px" viewBox="0 0 1117 1190" version="1.1" xmlns:xlink="http://www.w3.org/1999/xlink" xmlns="http://www.w3.org/2000/svg">
  <desc>Created with Lunacy</desc>
  <g id="g14" transform="matrix(1.333333 0 0 -1.333333 0 1189.332)">
    <g id="g20" transform="translate(367.512 483.2183)">
      <path d="M44.22 9.02701L51.255 0L58.29 9.02701C60.096 11.344 102.51 66.966 102.51 170.802C102.51 273.232 61.341 382.341 59.589 386.935L51.255 408.781L42.922 386.935C41.169 382.341 0 273.232 0 170.802C0 66.966 42.415 11.344 44.22 9.02701ZM17.838 170.802C17.838 241.815 39.072 318.237 51.255 356.237C63.439 318.237 84.673 241.815 84.673 170.802C84.673 119.964 73.677 81.675 64.453 58.507C59.726 46.634 54.968 37.407 51.254 30.965C39.666 51.103 17.838 98.621 17.838 170.802Z" transform="translate(0 -3.051758E-05)" id="path22" fill="#495E2B" fill-rule="evenodd" stroke="none" />
    </g>
    <g id="g24" transform="translate(445.6135 461.329)">
      <path d="M126.676 85.868L127.676 85.868L126.676 85.868ZM198.806 231.327C168.674 213.986 111.704 177.816 72.613 132.328C32.825 86.029 21.935 42.298 18.957 22.087C38.53 28.133 80.299 45.586 119.912 91.68C159.003 137.169 186.194 198.931 198.806 231.327M0.00901032 0L7.62939e-06 10.361C-0.00199127 13.005 0.618004 75.919 59.085 143.954C116.581 210.859 207.455 256.558 211.295 258.471L230.241 267.907L223.762 247.758C222.449 243.673 190.936 146.96 133.441 80.055C74.973 12.019 12.868 1.94498 10.253 1.54898L0.00901032 0Z" id="path26" fill="#495E2B" stroke="none" />
    </g>
    <g id="g28" transform="translate(161.6792 461.3285)">
      <path d="M219.989 1.55L230.232 0L230.241 10.361C230.244 13.006 229.623 75.919 171.156 143.954C113.66 210.859 22.786 256.559 18.946 258.472L0 267.908L6.479 247.758C7.79199 243.674 39.305 146.96 96.801 80.056C155.269 12.02 217.373 1.94601 219.989 1.55ZM211.246 22.055C191.713 28.039 150.118 45.382 110.329 91.681C71.235 137.174 44.042 198.943 31.432 231.337C61.549 214.013 118.493 177.867 157.627 132.328C197.24 86.234 208.212 42.315 211.246 22.055Z" id="path30" fill="#495E2B" fill-rule="evenodd" stroke="none" />
    </g>
    <g id="g32" transform="translate(467.9427 291.6779)">
      <path d="M125.956 2.039L144.275 0L134.506 15.63C133.454 17.312 108.38 57.057 74.991 78.335C40.163 100.531 10.052 93.9 8.787 93.608L0 91.571L2.135 82.808C2.449 81.518 10.233 50.957 44.93 28.845C78.365 7.537 124.028 2.253 125.956 2.039ZM54.516 43.887C37.296 54.861 28.159 68.049 23.581 76.938C33.257 76.653 48.477 74.081 65.405 63.292C82.152 52.621 96.979 36.131 106.835 23.608C91.67 27.092 71.065 33.34 54.516 43.887Z" id="path34" fill="#495E2B" fill-rule="evenodd" stroke="none" />
    </g>
    <g id="g36" transform="translate(225.3152 291.6778)">
      <path d="M9.77 15.63L0 0L18.319 2.039C20.247 2.254 65.912 7.537 99.346 28.845C134.043 50.957 141.826 81.518 142.141 82.808L144.276 91.571L135.489 93.608C134.224 93.9 104.112 100.531 69.284 78.336C35.896 57.057 10.821 17.312 9.77 15.63ZM78.87 63.293C95.809 74.088 111.031 76.656 120.694 76.942C116.111 68.042 106.975 54.858 89.76 43.887C73.203 33.337 52.589 27.087 37.423 23.604C47.264 36.116 62.081 52.593 78.87 63.293Z" id="path38" fill="#495E2B" fill-rule="evenodd" stroke="none" />
    </g>
    <g id="g40" transform="translate(364.961 262.1481)">
      <path d="M0 53.806C0 24.138 24.138 0 53.806 0C83.474 0 107.611 24.138 107.611 53.806C107.611 99.056 61.779 141.524 59.827 143.31L53.806 148.821L47.784 143.31C45.833 141.524 0 99.056 0 53.806ZM17.838 53.806C17.838 82.399 42.192 111.723 53.806 124.08C65.423 111.719 89.773 82.397 89.773 53.806C89.773 33.973 73.638 17.838 53.806 17.838C33.973 17.838 17.838 33.973 17.838 53.806Z" id="path42" fill="#89C65B" fill-rule="evenodd" stroke="none" />
    </g>
    <g id="g44" transform="translate(409.8482 389.9606)">
      <path d="M8.91879 0C6.64479 0 4.37079 0.864 2.63079 2.594C-0.86221 6.066 -0.87921 11.713 2.59379 15.207C43.9848 56.842 94.8148 83.849 153.673 95.473C207.855 106.175 267.286 102.905 325.544 86.015L339.598 81.94L329.536 71.316C328.695 70.429 308.481 49.372 267.353 31.227C229.843 14.678 166.823 -2.562 79.5878 9.299C74.7078 9.963 71.2888 14.457 71.9518 19.338C72.6168 24.219 77.1098 27.637 81.9918 26.974C164.565 15.748 223.944 31.742 259.218 47.137C279.877 56.153 294.918 66.023 304.406 73.218C192.334 100.81 87.6758 75.489 15.2438 2.631C13.5008 0.877 11.2098 0 8.91879 0" id="path46" fill="#89C65B" stroke="none" />
    </g>
    <g id="g48" transform="translate(88.088 389.9606)">
      <path d="M330.679 0C328.387 0 326.097 0.877 324.354 2.631C251.923 75.488 147.265 100.81 35.191 73.218C44.676 66.025 59.719 56.153 80.38 47.137C115.654 31.742 175.032 15.749 257.607 26.974C262.481 27.645 266.981 24.219 267.645 19.338C268.309 14.457 264.89 9.96299 260.01 9.29899C239.852 6.55899 220.974 5.37199 203.418 5.37099C145.001 5.36899 101.087 18.502 72.245 31.227C31.117 49.372 10.902 70.429 10.062 71.316L0 81.94L14.054 86.015C72.31 102.905 131.741 106.175 185.925 95.473C244.782 83.849 295.612 56.843 337.004 15.207C340.477 11.714 340.46 6.066 336.966 2.594C335.227 0.864 332.953 0 330.679 0" transform="translate(-7.629395E-06 0)" id="path50" fill="#89C65B" stroke="none" />
    </g>
    <g id="g52" transform="translate(358.0072 0)">
      <path d="M0 49.446L9.888 49.446L26.208 16.601L42.455 49.446L52.272 49.446L52.272 0L44.573 0L44.503 36.945L28.892 5.155L23.451 5.155L7.84 36.945L7.84 0L0 0L0 49.446Z" id="path54" fill="#495E2B" stroke="none" />
    </g>
    <g id="g56" transform="translate(433.1866 0.0001220703)">
      <path d="M18.012 25.359L1.271 49.446L10.95 49.446L23.028 32.28L35.178 49.446L44.928 49.446L28.326 25.713L46.34 0L36.38 0L23.028 18.647L9.748 0L0 0L18.012 25.359Z" id="path58" fill="#495E2B" stroke="none" />
    </g>
    <path d="M327.767 8.972L0 8.972L0 0L327.767 0L327.767 8.972Z" transform="translate(0 20.23865)" id="path60" fill="#495E2B" stroke="none" />
    <path d="M0 0L327.768 0L327.768 8.972L0 8.972L0 0Z" transform="translate(509.767 20.23865)" id="path62" fill="#495E2B" stroke="none" />
    <g id="g64" transform="translate(0.0009002686 85.87921)">
      <path d="M0 115.721L23.144 115.721L61.332 38.848L99.354 115.721L122.334 115.721L122.334 0L104.315 0L104.148 86.461L67.613 12.07L54.885 12.07L18.35 86.461L18.35 0L0 0L0 115.721Z" id="path66" fill="#89C65B" stroke="none" />
    </g>
    <g id="g68" transform="translate(152.893 85.87921)">
      <path d="M0 115.721L82.657 115.721L82.657 98.198L19.506 98.198L19.506 66.954L76.045 66.954L76.045 49.428L19.506 49.428L19.506 17.523L84.642 17.523L84.642 0L0 0L0 115.721Z" id="path70" fill="#89C65B" stroke="none" />
    </g>
    <g id="g72" transform="translate(261.3066 85.87653)">
      <path d="M47.458 115.711L0 115.711L0 98.219L47.132 98.219C69.923 98.219 87.618 81.34 87.618 57.692C87.618 34.207 70.453 17.532 47.947 17.532L0 17.532L0 0L46.969 0C81.992 0 107.311 24.463 107.311 57.856C107.311 91.41 82.155 115.711 47.458 115.711" id="path74" fill="#89C65B" stroke="none" />
    </g>
    <g id="g76" transform="translate(389.4198 85.87921)">
      <path d="M0 115.721L19.506 115.721L19.506 55.876L74.722 115.721L97.702 115.721L52.902 66.292L100.677 0L77.204 0L39.179 51.082L19.506 29.428L19.506 0L0 0L0 115.721Z" id="path78" fill="#495E2B" stroke="none" />
    </g>
    <g id="g80" transform="translate(505.7807 85.05219)">
      <path d="M0 116.548L19.51 116.548L19.51 48.77C19.51 29.263 31.576 17.523 50.588 17.523C69.436 17.523 81.173 29.095 81.173 48.77L81.173 116.548L100.679 116.548L100.679 48.77C100.679 18.515 81.667 0 50.423 0C19.177 7.62939e-06 0 18.515 0 48.77L0 116.548Z" id="path82" fill="#495E2B" stroke="none" />
    </g>
    <g id="g84" transform="translate(623.463 85.21637)">
      <path d="M8.43299 35.214C20.337 24.305 35.214 18.351 47.614 18.351C61.169 18.351 69.269 23.478 69.269 32.403C69.269 58.193 6.78199 43.811 6.78199 84.976C6.78199 104.812 23.807 117.211 48.935 117.211C63.98 117.211 78.693 112.416 89.437 105.31L81.338 88.115C68.775 95.721 56.21 98.86 47.449 98.86C36.041 98.86 28.602 94.565 28.602 86.795C28.602 61.498 91.091 75.054 90.927 33.396C90.927 12.733 72.742 0 47.285 0C29.099 0 11.906 7.441 0 18.351L8.43299 35.214Z" id="path86" fill="#495E2B" stroke="none" />
    </g>
    <g id="g88" transform="translate(737.1869 85.87921)">
      <path d="M0 115.721L19.507 115.721L19.507 65.465L80.84 65.465L80.84 115.721L100.347 115.721L100.347 0L80.84 0L80.84 47.943L19.507 47.943L19.507 0L0 0L0 115.721Z" id="path90" fill="#495E2B" stroke="none" />
    </g>
    <path d="M54.807 0L0 0L0 17.366L54.807 17.366L54.807 0Z" transform="translate(243.683 135.4677)" id="path92" fill="#89C65B" stroke="none" />
    <path d="M19.53 0L0 0L0 54.797L19.53 54.797L19.53 0Z" transform="translate(261.306 116.7407)" id="path94" fill="#89C65B" stroke="none" />
  </g>
</svg>